<mxfile host="65bd71144e">
    <diagram id="_DXhILT19hHaOczewcif" name="第 1 页">
        <mxGraphModel dx="2336" dy="2529" grid="1" gridSize="10" guides="1" tooltips="1" connect="1" arrows="1" fold="1" page="1" pageScale="1" pageWidth="827" pageHeight="1169" math="0" shadow="0">
            <root>
                <mxCell id="0"/>
                <mxCell id="1" parent="0"/>
                <mxCell id="2" value="&lt;div style=&quot;text-align: left;&quot;&gt;&lt;span style=&quot;font-size: 24px;&quot;&gt;&amp;nbsp; &amp;nbsp; 1、Vite采用EsBuild的方式构建打包项目，而Webpack则是使用node，EsBuild是采用Go编写的，采用多线程能更好利用多核CPU的资源，而node不行这是单线程的劣势。&lt;/span&gt;&lt;/div&gt;&lt;div style=&quot;text-align: left;&quot;&gt;&lt;span style=&quot;font-size: 24px;&quot;&gt;&amp;nbsp; &amp;nbsp; 2、Vite的构建是根据路由表来构建的，也就是先构建必需的页面，比如登录或首页这些，Vite 会在后台预先编译所有的模块，并生成包含这些模块的依赖图。在需要加载某个模块时，Vite 可以直接从预编译的依赖图中加载该模块，从而加快加载速度，而Webpack则相反它是构建全面页面，项目越大启动越慢。&lt;/span&gt;&lt;/div&gt;&lt;div style=&quot;text-align: left;&quot;&gt;&lt;span style=&quot;font-size: 24px;&quot;&gt;&amp;nbsp; &amp;nbsp; 3、Vite在使用了Es6的模块化特性，可以直接在浏览器中运行模块化代码，而无需打包成为CommonJS或AMD格式，这样可以减少编译的复杂度和时间。&lt;/span&gt;&lt;/div&gt;&lt;div style=&quot;text-align: left;&quot;&gt;&lt;span style=&quot;font-size: 24px;&quot;&gt;&amp;nbsp; &amp;nbsp; 4、&lt;/span&gt;&lt;span style=&quot;font-size: 24px;&quot;&gt;Vite 在开发环境下使用了 Rollup 作为底层打包工具，而 Rollup 的打包速度相较于 Webpack 更快。&lt;/span&gt;&lt;/div&gt;&lt;div style=&quot;text-align: left;&quot;&gt;&lt;span style=&quot;font-size: 24px;&quot;&gt;&amp;nbsp; &amp;nbsp; 5、&lt;/span&gt;&lt;span style=&quot;font-size: 24px;&quot;&gt;Webpack 是一个高度可配置的打包工具，支持各种各样的 loader 和 plugin，但是这些配置也带来了一些额外的时间开销&lt;/span&gt;&lt;/div&gt;" style="text;strokeColor=none;align=center;fillColor=none;html=1;verticalAlign=middle;whiteSpace=wrap;rounded=0;fontSize=14;fontColor=#FF3333;labelBackgroundColor=#FFFF00;" parent="1" vertex="1">
                    <mxGeometry x="960" y="-870" width="580" height="520" as="geometry"/>
                </mxCell>
                <mxCell id="3" value="" style="shape=image;verticalLabelPosition=bottom;labelBackgroundColor=default;verticalAlign=top;aspect=fixed;imageAspect=0;image=data:image/png,iVBORw0KGgoAAAANSUhEUgAAAyYAAAJgCAYAAAB/QXf3AAAAAXNSR0IArs4c6QAAAARnQU1BAACxjwv8YQUAAAAJcEhZcwAADsMAAA7DAcdvqGQAAPGGSURBVHhe7P1br27Zfd6J+SPkC/QXSABfBMl9GwhykW40ECQw+oIgEqDRF6kQLQgNsEmopRRQbHTTJmkqpgkqBRKgRMpEyaRIU0XTZERSKtGk6RJdpmnKpi0fJMuyJZ/l82HFv1V6Kk89/I8553tY6127+Gzgh3fOMf7ncZhz7Hetvf/A/+5//4fuSimllFJKKeWW9GBSSimllFJKuTk9mJRSSimllFJuTg8mpZRSSimllJvTg0kppZRSSinl5vRgUkoppZRSSrk5PZiUUkoppZRSbk4PJqWUUkoppZSb04NJKaWUUkop5eb0YFJKKaWUUkq5OT2YlFJKKaWUUm5ODyallFJKKaWUm9ODSSmllFJKKeXm9GBSSimllFJKuTk9mJRSSimllFJuTg8mpZRSSimllJvTg0kppZRSSinl5vRgUkoppZRSSrk5j3Iwef75/+XuH/3jf3L3WH/whc8pllJKKaWUUsrT41EOJo95KNEffE6xlFJKKaWUUp4ej3IwudWfKZZSSimllFLK0+MtdTD5j//xP96jP1MspZRSSimllKfHW+pg8h/+w3+4+/f//t+/cTiZYimllGvwjW/86t1P/uT/Z+z7xCf+1N1v/MZv373zf3h+7C+llFLKD/KWOphwKPl3/+7fPamDCS8uv/3b//Duy1/+5bH/HH71V//yPdnOSxAvQ7wUZZ/4b/6b/+7u1/7qr4/xPPTLFPaP1EExrvJQ/+/+7j89ua7YRBcbasNGtm2xVcPV2GxBvbG3V3fm0t/49d8Y5aa8Hgt8Mxar8boFR2NiDFdriVqvDh6w0gXNkXNqgt1pbh1BeZ+rX0oppdySt8TB5Pd+7/fufv3Xf/3ur/yVv3L3V//qX/1PB4Hfvv/2ZIrlsZkOJmo756Vl64UJe3svp+hx+Jj09TK1etlC5zt/+a+9YV8vQXsoT2LfOzjB9FKnNtn0ehKv+3Ooc+aKvB/AsLVXN2erhthe1W/FUR389WByjKMxMfZT7Y8cTPZk8H3qXNiaW3so56OHEmLTOoFprZRSSimPyaMcTDgk8IdvNPjzL/7Fv7j7a3/tr9195zvfufve975393f/7t+9/6YDOcnqj7794JM+PgV/fvd3f/fuG9/4xt2v/Mqv3NuDv/AX/sLdX//rf32M5Slw9KUpyRcJITurfn858hcxXkJ4GZl0HL3o8CLGwcRf6vlcHTamF37kXH9iOphkn798kc/0Mrb14oi8dNA/5aV+yktgy+u9x5F6CPLoweQYR2NiLKfx2po7jubCz/2pz79pzWyximma20dRvnu476/90jfeNJfw28NJKaWUW/IoBxMdIjiY/JN/8k/uvvrVr979uT/35+6/4eCA8pf+0l+6P0j8y3/5L+9l/vW//td3/+Af/IO7v/23//b9NyC/9mu/di/3N//m37xvpx+b//gf/+P7Q8i3v/3te7v/9t/+2/sDzj/8h//w7vvf//4Yy1Pg6EtTki/gepHBDi8T/m2G6+jFK1+2tl50RfpUm2wCdvJveemfXrg9ZmTyxWnC7Uwvb1OMkPmuyHy28Pin/lNsEdf0zdkqn63xwgZx5firzt52bfDBOK1qcgv2YlIt+T0R5Kjde/6nD9zPNc27ZJrP3KM7jcmpME45hltjLpgrU2xCtZjmlIM+dvbkSimllIfi0Q4mHDg4ePz5P//n7w8THCT0Dco//af/9P6bDv0oFt9+8C0IcnyjwsGET2Q4hLz22mv3hxQ+aftX/+pfvfFtiw4s6EyxXBNeJKYXAl4E9DePevnkYa+X2nzh8ZcnbG71+UuD7PG3tXxOL2HoANfoci09DjLnHEwmlCc2+cwXrFNQfJ6P7HttQDllu9A4YGNLbgvPn5hom2oN+ICpz1m9BGKXmBlTbwfyOOVggm1i/fwvfPnuU5/67L1d96cYUo/4vS1rn/JeE6+x197tEINiE1lPxab+aZ2B23F/HpNkFRuftJPHL/3SN+/vM2d8UWvZ43NvrWwhH1MfkEfmSCzExJqa/NKm8eNQxafLqX9Vu0TyPkdKKaWUx+TRDibAYeLnf/7n7/7O3/k7b3zDocMEvyfCNyff/e537/v5ZgSZf/Nv/s0bcAChjd8h+a3f+q27v/f3/t79j4XxBxvI/Oqv/ur9NzJ/8S/+xTGWazK9/IC/5PjL2BE9f4lIOfrdjl5ceLlavcBIh3a9aGEP+Rdf/Jn72PCxBfqKBZSbfCjH1PE4XMb1p3/ZSHllfWCqZ9ZFeM7ZJ+QLG6s+2dY9ORAb7Z7zFp7LyueU29SftrGjMcU2srT5XJp8yt4kpxgyJvW7L58bylNybtvj9xyJiXb6pUtbxuQ+J/u0cQjjWjEpHo2V/PKJvg4m2OBHm+gD7rcOJuhkznx6PIJ72iWX0O75C3xM9kD5ex25Rl6HFI/tCOhPcZRSSimPxaP98juHij/5J//k3Xve8543vhHhR644UOgPMhwuaPN/XYs/+kaEP7TzbYu+cdEfvj3BLgcWvp2ZYrkmeuHgBSLb9MLAQ95f7ICXhXxpmNr08iH7fLod9UuHPu5pl4x0FAc+9PIBp/4tML7w4Yea9An4pM/9uT7ywMEk9bmmzWshaMOm1+EStl4as0++YZIH6u3zIVFuq5y3dLfGi3jQ148jTXZoo0/61JB7xkf54IM2PlexIptjOo2J6qd25NHL2I7knj6x6feJYuJzig9fQNvkl9i3DiaguLGvNuzl/MB+1lB4nNm+ld+E6j3Z20Nxe41KKaWUx+ZRDiYcIPh2hN8T4Xc/+Hbkb/yNv3FP/uFAwh90OID44SQPIvmHAw/fpugblimWa8NLh7/s8ULg97xY8ILhD/zpZSTteLtearhGL0k7wLVenNw317rXyxYyk13hL1X4Wr1kyZ/Hk6T+pLNlRzX49V//zfs8VN+M2VnFC/ig7h/8yZ+6l/P660UPGV3r26kpNvD6J7IxxYPONP7O9HIsiIdct2wg4y+7+FQ+mhOqBzamuQtqVw3kW/dC46h6rOwBMlNdAHmNpXxsyYNiIj98KgZQXNgF7xPESh1UKz6PHExAvrHNtdfcUV6pv1WnRDFgx8deMWzVSKziKKWUUh6bR/vGRAcMHTh+53d+5/7HtvhFdtoEf/wwwp+8X/3hF+r5MTAdbqZYrk2+ePCS4y8600uGXhr8RQAd2ib0woGM25lejOSPNn8Bo482f1FBVgcT+rjXj4PxyT26ruM2ZH+K2cnc3Z7a/KVKdmmXDBAPckJ5usxkf4X8aLwyV+LBDzbxzbc7q9hEjr9IXw5+fQ5he5Kjf+tgspe38sEf19jKMfb46SOuaUxB44pv7rMmylm2ZU96Dj6JjbgUp/txH1u1FJIH2Z3ksI2d9LmF/CqOzBu8dlO+6PiYC8XhPrQWXU75pQ3F5PE6WQv5m2IspZRSHptHOZjooMAn8GNWfFvyl//yX74/dDj6w7cr+le6+PObv/mb97/svvWHf3b4S1/60t0//+f//N7PFMu10YsAD3Y95P1FZXoZ00uFy/Eiohc4tSXIuJ3VixEyyHp/vrAQk/9uCjLEesrBxH3CKh5npU+80lvZIRbioo9r+vUCJ1b2J5DNFzsfB9oZT+/fyxH9jGkL7ORcmOYREMepBxN0yFG2FB/t1FJ5Yle/myDZ1F1Bf+YAqpXqIXs+hwUyip/rfIF2H7I75Zvy/M4JttKe0FqZ2tGf+oTiyLxB/mHlO1nlRSxbuQrFPMWzqr3mWraXUkopt+DRDyb8ngj/ahb/OhcHidUf/kUufgcFHX7B/e///b9/961vfes/PXh/9/7gsfrzy7/8y/f/zDB/plgeAr046F/H8heI6YVALy3+AsE1csirLeElye1svRgd6ccWNkEvUROeE7YyR7HnD7b0hV6W3A5tvDzzuy3oqw7yOcUtpnikly+etOtQhl6OyV6OqufUl2BjFR/55QstcZxzMMGOcsAucvqlb9pUb9pcdlWjRHn43ATsUD/lp/u0J//oy2fmQp/Xivut9aKY+JTfqT7YyXgUA4cafavk/SmnmAT2VA/JbMUKkpti9Pp4u3B/xJL50O61K6WUUp4qj34w4XdN+D9L+LErftldP8qlX2znd0Mkz8EE+Be6aOOX2/lXt/jDvf8IGNDGoefll1++v55ieQh44eDFYXp50EuRt09tejHBhr948pKhFwquJ53VC4deaFb9sicfxHXKNyZc88JzBMXg+h6LYpV8yhALL4rK2evgrOwn5Jy1TrCVMvKvfBLswtTnoE+eqzzkx21RAz+YqGbYWOWdOWCDe/Ac8MPv7aSNKU7NE8lJxl++FZvbow8ZZOVbeXqM+HJbsu96su962Fr9q1y6z7HB19SmuP3aZUCxywey+PDYXc7jcdTvuSTopV3lhF+1yRZtqvcqfpCM2yillFJuxaMfTDhofPazn7371Kc+df9jV1/+8pfvvwnhd070h8MJvyT/xS9+8e7P/Jk/c/dn/+yfvfuFX/iF+3/Vi29OXn311fvfJckfA+Ogw7cp9HOAmWJ5CPQykC8OsHrw6yXGX1b8BSb7gBco75tknK2XGVAfdmnn+ujBhL9dT7+KP9uFXianOh1FPlYvUopP8U6guxeD/KStvRypZb7oJhr7VQ4CHx4nn9xr/PxFdpV3jp/iz5dg9FcxqU+kH/Xrx6ZWcopfP0IouYxFMbod/c/q+FrJea0Uk8urzf2Rr48XMjk36M9c1I49Pid/CXLuC7QmsgaJck39CdU585hQ3HtzsZRSSnkMHuVgwrck/NG/zPVTP/VTd3/sj/2xuz/6R//o3R//43/87o/8kT9y9+EPf/j+/zlBhkMFBxcOIfzni/DRj370/v854T9h5KDCtyh888IBhk9+fOvXf/3X7388jEPLz/7sz46xPMvwUuIvEHpZ0cuQXjIcyetlRS82/kLGJ7rI7B1MuMfu9NKT8Th6AZMvj+0U5ANdXXu+K/Ap+Sl2xec608viVo5AfqrrhHI/Ana8/lyvXjan+MUq1seGuIn/nHF/KIhF48Xnqr7Zp3v9aKHGKPW2OGX+4otxZIyn8fR5dU4spZRSylPgUQ8m/+yf/bP7b0D+9J/+0/ffluifC+b/HeFwwu+d/KN/9I/uv1Hhf4DnmsMG/V/72tfuDyMcTPjPE/n8whe+8IYt5Pll+q9//et3X/nKV+5++qd/eoylvP4Sy8uLXrp5ycqXHX/R0YukXqRWL5bqn16c+MVq/atW3G+9SCf+QrgXwwrpgWI4h60cgVrC1HcOOVbPMk/5YAJ7c0Nrgk++HfIDDPo5b1dcMj+IFzQPr2GzlFJKeSo8ysGEP/yoFQcR/ejW9773vTcOLBxA3v/+99//4jr/Dwn/HwnfnvA7JRxKfuM3fuP+f4xHn29HOJRwYOEbFL6B4fdVsIE9fgyMT/6H+CmWUspteIoHk1JKKaU8HR7tYMIvufPNBv93Cd9s8CNXHFb4wz8L/MEPfvD+0MLBggMH/4M734LwTwTzo10cTPhGhd9F4Z8Oxh5gg3YOLPyOiX6fhT9TLKWU29CDSSmllFK2eLRffudbj09/+tN3/HO/HDz4nRAOFfxrWnzDwe+a8MvuOnBwKPm1X/u1+382mG9E+OaEb1r4JkT/Chd/sMGPeHHY+a3f+q03voXhzxRLKaWUUkop5enxKAcTvsn4pV/6pfvfDeHbEX5Ei4MH/0QwcJj4E3/iT9z/zgj9agcOGxw6+MO3JfxzwBxK9CNb0v9bf+tv3R948MGPgyEzxVJKKaWUUkp5ejzKwYT/IJFDB7/8rm9Ofu7nfu7+d0k4RHDI0MEEWT+Y8GNbL7744hvfpNDGtyRccyDh2xh9g8I/FYw8/5oXMlMspZRSSimllKfHoxxM+LEt/olfDiJ88iNZ/F4Iv3PCj2hxuOCfC+Zf7MpvTLjnGxM+f+/3fu+Nb0mAAw3t+rEu/dH9FEsppZRSSinl6fEoBxP++V7+OWB+zIr/YJEDBocUviHhcME9/6/JV7/61fsf++LbDv5w+ODQwrcjHED4RoR+Dh6SoV+oHdCdYimllFJKKaU8PR7lYMJ/dsiPcPFH32bwnyB+/vOfv/+PFDmgcHjh2xP+cBDhP1Xkx7r4w0FDh4/8o3Z9i+JMsZRSSimllFKeHo9yMPmN3/jN3z9GvP6/v/MtCb/Ezr/Cxf9dwjXfmnAg0SGD/5eE/yyRf1aYf4mLNv/DNyj8zgp6/qNcOpT87u/+wzGWUkoppZRSytPjUQ4m/+P/+J673/md3/39o8Pr/9M735Dw/5NwwNA3IRwo/FsRDir8j+/8Xgr/G/znPve5u1deeeX+d1M+85nP3P+uCocaP7ToUPL/ev5/HmMppZRSSimlPD0e5WBSSimllFJKKVv0YFJKKaWUUkq5OT2YlFJKKaWUUm5ODyallFJKKaWUm9ODSSmllFJKKeXm9GBSSimllFJKuTk9mJRSSimllFJuTg8mpZRSSimllJvTg0kppZRSSinl5vRgUkoppZRSSrk5PZiUUkoppZRSbk4PJqWUUkoppZSb04NJKaWUUkop5eb0YFJKKaWUUkq5OT2YlFJKKaWUUm5ODyallFJKKaWUm9ODSSmllFJKKeXm9GBSSimllFJKuTk9mJRSSimllFJuTg8mpZRSSimllJvTg0kppZRSSinl5vRgUkoppZRSSrk5PZiUUkoppZRSbk4PJqWUUkoppZSb04NJKaWUUkop5eb0YFJKKaWUUkq5OT2YlFJKKaWUUm5ODyallFJKKaWUm9ODSSmllFJKKeXm9GBSSimllFJKuTl/4H/9v/nf3pVSSimllFLKLfkD/4f/4//1rpRSSimllFJuSQ8mpZRSSimllJvTg0kppZRSSinl5vRgUkoppZRSSrk5PZiUUkoppZRSbk4PJqWUUkoppZSb04NJKaWUUkop5eb0YFJKKaWUUkq5OT2YlFJKKaWUUm5ODyallFJKKaWUm9ODSSmllFJKKeXm9GBSSimllFJKuTk9mJRSSimllFJuTg8mpZRSSimllJvTg0kppZRSSinl5vRgUkoppZRSSrk5PZiUUkoppZRSbk4PJqWUUkoppZSb04NJKaWUUkop5eb0YFJKKaWUUkq5OT2YlFJKKaWUUm5ODyallFJKKaWUm9ODSSmllFJKKeXmPNrB5D//r/7rsf0heExfpZRSSimllMt58IPJH/ov/vDdH3zHf3v3n/3R//7uf/XTP/Eo4Auff+j/9IfHmEoppZRSSilPiwc/mPDtxXR4eAz6zUkppZRSSinPBo/yo1zToeExmGIppZRSSimlPD16MCmllFJKKaXcnCd3MPmDn/nA3f/82lfufvm3/+bdJ/76t+/+H1//zCh3hCmWUkoppZRSnlXe/n/778b2a/F//r/83++e+3/+2C4PEceTOphwINGfv/3P//H94UTXHFgmnS2mWEoppZRSSnkW4UDwcz/3i3cf+9hnH+Rg8JP/75+5t38U5Cc75/JkDiY6lPAtibdzIPE/HFIAeZebmGIppZRSyg8Pz73jXXfffPU7dx/80EfH/vI0eNvbn7t7+Ytfux+vqf+Tn/rc3Vdf+da93NT/wwIHEg4DYpI5F74p4bCxdeDRwYjrI/Kn8mQOJvzJQ8l/+Wc/dn8I4Y8OI/oxL/7w6fLJFMutYCGxoK69qGT3te9+/8ktWDYYHgarTeYWnBITmyDyU9+zAA/hS+qvuTU9zGlb1WarD55/4QN3r3zj2w82L7DrLyF5v5XXCukwJ6b+BNte+8mn4jpq8xTSv8PY7M3ra4wRNoiBz6n/rc7WGJwKNpg/p9jSOFP/L33l6yc9Gy6dP9cg999L/aJLDU+pQ+J1Ib4jaxdZdHztH0X7xquvfW9cR9jk2b/qfxZhnFZ1pZbsS+fkumX3WUKHAv2oFYeUSe5c/NCxImW4ps1lLuGmBxP9Pon+6Me1+PTDx/RjXPzuCX+2vjmZYrkmTPStBw+Lhw2DxaANxjdGbVinLhZtRuJUfeJebWTYwua0ie7lm5wq/xicEhO1QD7bNa4+BllP1XEP19McSRnaeLHIdmc1Xh6/5huyXB/Z4DXX3D7XxM3n6iGPX5+Xfo9Pf+n1Pvk7FV9X2PJ7/JG311k5uNwWyCDrOW3xzne/541cVCf0uaYfO+pD1nWJM+fXHj7OkPUXR8c9x0jxbpH+iCHj2kN1muxv4b5PtaExuTbK/8h47sXAOLAHHJ2vyGutc099pDuNZY4T9zmesDd/rjF+bkfxH523W1zDBvHo+fHe9334/npvjnvtp/4kx0c1mGo7jZv3nwK61xq/S8i9J8HXOf5Wczo5sl4FcpfMp3PgG5L3/E9/4v76yCHiVP6Hd/0vu4edt/TBxH+HhD+08S0Jf2jjWrJc5y/CcyhBztucKZZrwobB5NTGkbAItiauFsC5i1qbiOtvbSzaUFdxu27GhN6RTdhBVj6n/luwF5Nqk6CnDRMZ3zjV7japH7WkpmpLkF89KPHnteZ6mifYIJ8cy8l2yipXt4ufzP0obgdf5M+n7Ko/67XKTfMxcwN0INunNYH+NOZZjy0muxOq6al4fNSH+5wX+J5y9lqs/O/1Z31yjCawtZrj6B99uK9sOEfrD5LdG9ejcudA3bT+VuMpOZ+Dq/HZI2uInRxT5sBUP59XK/+nzp/klPGDnH/oTX4dYoSp7wgagy0yLj7J65Q4V6g2Ph7OpfOV2FmTW/rn+CDWo+N6FI3l0Xrme9YU09E4sbNarw5jrjU+9T8E/LgUhwD92JQOCBxUBAeL1DsF2Zn6xFv2YKJDCQcOfoRLP5bF4UPXoG9P8ke66NMhxg8wzhTLNWFiMoGZ8NmnBQ7+wHC0UZy7qKfNfrWx4Esb6ipuLcjpb+bOiRX7ew+sx+aUmMhVNVLNqKvXkj5ksi7cTxtokhuqwKZ8614+iEHj43FJFjx2MclqzKcYzgGfmaNyyXYn6weruQyyme2ap5OPPYhBPqf+LaaxydhW5Hxajck0puC1mPxLjzbWdtpFB3/4R27KbxqDVa6q4RRr4rFvIZvTPEkkO+UxMeV2KcSp2qzGE3JNrmq6xaRDTY/OSZ9Xk+wp88fbHXSxe2T8wOPHLrp8nlofbByV11hMc+QIxJY2yeOUeMHHw1ENJz97oDuNXXKODx+ra0GcxHtK3ZwpJto++/kv/8AY5/hsrVeH+fJYBxP92Fb+TgntHET8YKLfP3H9U0D/h/Jgoh/D0oEiDybc+4956SDibRxQZCe/SRFTLNeGyT69XHJPuxa4FrwWAXq+OMAXkvTV54tn0hUfefET48aCvXyZzoeJNnFsTH2ZJz7cNzbVB/Lx/Avvf9Nm4Lm4HT49t626rmyBaj3JZN58KrasGTkjj8/X83g9Fj5VS79O3Sk2B53VxoZf8HvND+KUbcXvsatN8kJ1yfYEX6qdo/HwuGUza3cKnpuzZTvrs2KqzxYrn1u1m8aGH8/SvNoCWX4kxOcQdfX5JvAx5ey1kH/iVb/0Vvro4E/+Ad/TvHYmX4Cfae1OeOxbbNU/WY1hclTuVNLuajwh5+eqplukDn6o/1GbPi8m2XPmT6KaHBk/1USyfOp6L5cEvVPk99gay4RYWeN8Tv0riHnaJ6gLn6faA8YNO6rjCo2T3iMyjoRYNDcmew/J1pxSvknO02k+af1M+gly7N+rOK4Bhwxe/MXeAYBvUy75vZMjPvxg8pb55XcdLnSfBxN9O4Ic+LckwAFFMvyZfgcFpliujSZxTkrufRFoEfkiWOlm+6Q7yblsbl7I+osGOujSLhltMHowuA363D99LEzJSAc510HG66CYXU623J7ycF0+0VMMk8/JPm1sHlzTLpvyoTroXrGseOkzX7ivJS+fyOf4AW2TbpJjIIjTc+BafqiRxkI1UN1AvjMu5UfsGQfIhvsSxIgfPvGJDa+ZdNFT3PTvvdxukbadrM+KU2NY+VR71gWmenmNvN1BB5vY9nZ0mBfTGK1QLYg7beKHv30Umdukc6Rukx5tU3yO+z86jlv1TyQ7+Z7IelyKaiC7R8YzYzgyf1ZQI7fJZ46Tg/y1509yyvgpfj5zHh7x5ZDXKfJ7HB2XI2Mucv77eOieHPDNZ9Z/D/Q/9vGX7vdvricZoXE6xQex7tk9gnxTE38uKv8cQ/r1TEp9yJimOKf5lHZXaC5g49y1uocOALz8c3/qoeEcjhwy5ENc8g3NxE0OJhxEOFj4ff4olx82dBABfcvi3574ocWZYrk2Wgw+uZmwTGzfXCY5JjIL0BfLJAdMfl+sgF4uQOnnxoKeb/DpWzGjJxuKX30p6/kB/bTLB/0ZM2Qu3E8bSfqdcJ+r2jnEJPlVfCLrIFRLfROU/UBcW3EAMeSGhi1trII2UB2ol2yrRhpv2VTdIO1t5QzuSyCPTT49btVI/vlUfRUnB7mMYSLrmLYd1STbE2QmX47bWflUe9YF0M/2aWwTdLCJbW/3Wns78lPOtKldNXebrjfZnnTo35vjqec18piE+r22k9yE2576ncnPxFG5U9B6ZF7J7mo8XT5jODJ/pOs1QZ717f75JE/ylZzj82OSPWf+JKr13vgpb+UFXhuufe0K5NF1W0Dck7xzxD5QV/qn8XI0Lujs5TvNf6+37qkddvnMuETaAeJE3+cKrOp1zprALzanvnMgrpz7+PDnluKccoYppqmNe+z43J38b6E5MdXzUvKQwfXewYQfw7rkoICufpzLSRkgFh2arsnNvjHZOphwrz5Bv+TQ18ElbTlTLA8Bk9sXDROVjcIXtxaSLwLk0fPFMrV5u2xqo8EPi0jyq40FfeS0eHJh5+LyBZu++cz81O51wPa0YI/ayxgT2tGTT9Uka+coJn7WdPIpFONkiz7V8ojPcyBOz5tr+eBTffKvPCTn8g5tPgcn0KU2iddZG3fON9qIh0+P0/H6ebtymXwfIfOVvVUtFLv3ZT5bsmKyfzSXaSy8ht6Oj6metKmduCc/rocM9lV/7Hoc+GWs0XO5BDtT/OAxiayt7lNuQrJT/RPJZg1W5FhfAvHxrYLnuRpP0DzJGGjXGvN2QJa4tR79X3WjlumfT+6ncQKfV7Kd+BghszV/Jo6OH34UzyS7l4sjnx67s6q9oLa5T+3lIZvKYaplkvFJ1+/xiW0+Fe9e/LTLjselPnxnLZWfbCKf8YLmHjL4kN1rQKzT3FcsxMa1z8Fkimlq495rLWjLnLdYjcGlnHswyYPEKUy/t+J+8xfwH4KbHEw4VPBHBxB9+8EBg7bVwYRvS/Ttib4lka3pF+CnWB4CFpC/xDKpVwve21PP26bJD5JlIbB4QX34zY3F7eYmiy0tbq49NvS1+bic+jymRL6JZ9o8Mm/Zy5izZlkb5LGhONWfdhzfcLjek3Hcj9eSe/Lkc6V7BI8bOx4f16qX9xEDvtGlRnw7wafLO8hNY+JMup4junpwaIwUu/etYqBN8W+Rth3092zgB31iQjZznmohn9P4bJF5eh3UlvVQfPhUG6CTaxVWdfNakFPaTD3lqDbF8SM/+uP3n5pPUwzO5Etge6oTaDwVh9dkxTmy8rPiqNxRsEfe+hFP2WU8tXZSh/qq3tnu84dP7X0+ls7KP5/c05864PNjkj06f1b2QTpb44cMNsmdz0l2LxdHNVv53BoX9U9rYBWbclTdV3IOMuBt6OSawS5xuP3V3IG0K9mMR74kmznQn/Fhy+cm/Xt5nkLad4hLNZnyFlNMq7bM7whbMV6Tcw4mfNtx6b/MlbhfDirX/tGt5CYHE+BgwR8dMIBDBgcQDh5cezttOnxMBxO3I6ZYHgItZtAvveYCcBltqkzq3DjVtrXoZEu/oIa+Np6jv/wOyOBr+uUt2UMmF6/09hYlOthwn5A58jltNMoTO1P9gJgVi+xm7R3FxM/c+oYM8kF7xs21NiLwWkov48e2x8K1+9sCOZeVLY+Rex+n1J/qsJJ3Jl1yRo9Pr0Xmrnufh8gxLsS8IuvttqZYsz5J5smny6s/81z5VPtU01Wtk6Ny+J5qtIVyQ5c4iVf28Jm18jm81+/tzuRLYC9tJpoXWeuJrfonqzFMjsqdSto9Mv8zBs1P9a/qPJH++dzS9/GfZM+ZP4liOjJ+gL1Jdi8XB309G6Z+2rWnrfqnNYDdIzGscnCQydqlnvzxbqF9l3bNEZ87akubap/i0diA/nJCNpGfbHkcGe+lpH0HP0fWxBST2twGNcEf/aqR+k4l63QNzjmYHJE5Fbf5EPaTmx1M9C9q8ccPHRw0OGToR7aA/tXBBPgz/ctcUywPBQuZTZC/sZ42Q1/8WkzIIOsLSHJbkxx5ZFhIfE76vlkBvnKT1ULkq38+M2ZiwFZuaNLztgn0p1qgh75iIVYWdtpTfeiXz6yL+5hqnCAv3/jb8uubDsgPZC2x63aQwQ+fapO/iRwv7Hmuso8cdnPck4xHHJlf9E0xKn/y1oNjmm/o86NykvFaEBP9rkd71hPcj7cDNvZyyHlAm2oy9W+heLdqLshpqt8K1VX6+JhiU+28DWhTO75Td6Unpv7VmDiTL+ExOfjy3CXDJ30pL47Un1iZZ27/FLZsn4Ji1ZqglrkXCMUsWW9fzf2EuH0c0v/WOAH6GodJ1vsn9vpBMR2t8Wo+EN80drmGuKZtKy5sUfvVHMfGtAb29AS+p1iTjHGVe8bDp88d3U+6W31Ozh3kMz5s+dxcxXsuaR8UF/UiNuWzGocpplWcsp15bjHF+BDox6aO/vI7fS5/LfQ7JYD9Seaa3Pxgom9D+MOPcOmbEq75owOIfpSLaz+YuB3unSmWh0ILhYWTGzto8nufdHJBsPCw44uIBcABAl1e+riXTZdTmzYW1582WXzja1rg2KUvN33vcz9cey6y7TlPuanN/ag2ros9j3OKT7Y8Dvqmf5VL98h7HlOtuNZGlP18YtNtKDbPk2uPawvFBYpXfmTHbe/dO8TpNQDkQdepS87o8Ont03xDF1nVyHXpw77rZT3djo+/4/Em2JzmLKDjNc3+FYp3VVMH/1PcU12JQfOKe/mZclPtsp02tU++V3rC9cVqTJxVnjDZXKGcsTf1g2SO1P8aXOLvSD575LzYImud/rfGCXx+TLLnzJ/k1Hpib5LdywWoHet7b41ja0tGa8D/uXt866ciVF+Y4l3l4GTtyIvn/DTu2PLclafHsUKye/FonGQTeT2HHN9fpzxPHW+HWH3uYx+fOVbKadrrj9RerGqDjdVcyxgfEv2Ox1Ee4sesOCDpUPLQ35bAzQ8mHDb0LQl/9O1I/p4JbXkw4Z4/0++kwBTLQ6IFNC0ILdSc6GwAWuyu5+0wLZBp8avNdUUubJAfYvd2YNGx6CffgF+3nza4x6d+bEpkfRSD/klDyaVfbSDqxz62cmNS3JMdxeR1oE32pJ8vZb4Rqd/r7DnRjw/y4lP+kJGPCR+7zEm5S59P+ZSex+D9ieRlK/UnXeXkMYHiIldv9/nr38hhF/vyiRztWW/aqEHaFdhQ/M5KT3ESD3pcu789phqvwDey6Hj7VFdi8Accujn2QrXLdreLvuruTHqgumRc05gk6Ex5qm/lM8GX5sfUD6fU30E+60lc1GQ1t+BITCt8bk/9R9C47NmY6pL++VyNE/hYIZtzB06dP8mp44e/SXYvF8UDW3NX8Ux5qU+5T7aITe2Sz7Fa5eCkDPNtWnfKy31MbSskuxdP5oL8auzFlOe568drj01Y7Ycun/6JaS9uMcWKXWq28k+f79sPDd+AcCDY4yH+hSznoe2Lmx1MOIzkoYI2Diw6gIAOLPzRtyIcTPgGhT98SjaZYnkrMS3K3FgEC2jvReNWECsb0ZEN9jGgVmxGejAJbVBbtZSu58L4pK2J3FyF6uP9/jDQQ8d9Tg8LR3Eix7VvzK4r38C8Yn7RTr/a0SUGzb2Ud/voYd/nKe1eT9n2fBJsgLfJpueNbY2lt6tmGlO1r5hsryBu5e7tXleus04pk9CunF3fc5h8u57ylm76R1bt0hGqgeuuxmjys8VUl1NRLD7mmYPwXDR/vX81hkeQbWx4PffIWI/qZvzun/u9XPAr35PsKfMHOe87BcUrO5oTzlYuyluxOj4nxKpuR/YE1QH4C7VJZ8pBPhRD6nmtHdoyb8XgdVsh2ammjuI7YhMkn3a3xmmFbBHn1j9TfoRpnm6xVxcgJ9c5Nb9ynJsdTIBDB4eM6fdDOIT44UOHEuCPvjVxnWSKpTw9tOCPboYPDQ+KPHhwrb8hmfrh1E39CGzMbLDpa2+TnB6KiW/e5z4AjkC9Xn/Y/ODDHr8ePzFP+SbobcWMLx76ey8ZGjNi2KqX5I48wFYcGZNyGdT3yIulw1pKnUvG6iH2gVNI/3xqfXHv6x5OrddjsKp/5nJLrr1/ktP0Y1zcT/un/B+ZZ5Ldm9NH5m7OH65pc5lz189Ln375DVuKRX72OHe9lqfHTQ8mHDb0uyR8ckDhsKEDif/4llCft62YYilPDzZBNpYjG2wppZRSSnlrctODCXA48cOI/8lDiX6sK9tXTLGUp0cPJqWUUkop5eYHkwkOHnxbwh//fRL+TD/2tWKKpZRSSimllPL0eJIHE+CbFA4h/IgX7P0+ycQUSymllFJKKeXp8WQPJtdgiqWUUkoppZTy9OjBpJRSSimllHJzHvxg8p//V//1eGh4DPA9xVRKKaWUUkp5Wjz4weQP/Rd/+O4PvuO/vfvP/uh/Px4eHgJ84RPfU0yllFJKKaWUp8Wj/CgXPOa3F/2mpJRSSimllGeLRzuYlFJKKaWUUsqKHkxKKaWUUkopN6cHk1JKKaWUUsrN6cGklCfG297+3N1XX/nW3Sc/9bmxv5RSSinlrUgPJg/M8y984O6br37n/nPqfwh4sf3SV75+kk9egnkZfue733P/+dw73jXK7YHPV77x7ZP0P/ihj97XKHUe+gX9SJ3w/fIXvzb2bUFOr772vbPHHb9TTR4CYlzNUc0LapV9DnFuzRtq+FDjWEoppZS3Bj2YXAAvcrx8vvbd7/8AeqncerHb0t9i70WRvs9+/suHX2yR9wOAHxS4PsU/L6Cnvshv6ey94KOHDNfKI+NNPP69F2/6T81HoLdlewvlotwmiG3K7wgaa9mZcjwSg2CuvPSZL/zAWMkGTGOIHnNtinHiSCyllFJKeTbpweQK8PI1/c27Xsr8JfBc/BCjlzNvO4U8sGCHNo9/9bKKb3IiN64n+0eQbeLgGxb5pn2SdxS/YqAG+aKtGNUGegn2l1sfo1PyUfznjgH+YOo7guebkEeO8cQqdtVu1U8bfapd9u8hfWKYxmRCvvbkSimllPLs0oPJFeBliRfVfHnic3oxg+mlf8Jf/vTCqD5e7k79salJh5dcf9HesklOGYfAxqpvhfsGrrdeuqf4aMuDFXbcLn28EE+26eNgOcWd8SVTPOdCbY8cKLbQfNmqoZhi9/Elb81l18laJ0dkBL57MCmllFIK9GByIXqB08udXi71uxr+oo4ML4JHXtiAl0sdZKYXMuyc+lKcOnox1Ivsnk3i8JyE7GSc1Gb1koyO6qG6YXvrpfqUnPEtm6saJl7zFX5QyXiUR8a3VQex0t0Cu1OMWyj+qZbEQL0+8uInxnFGhxj55P5IvRKvA76xN8lNHBnDUkoppTyb9GByIbwoTS9Q/A08L33+4scn93qp20J2p5fDhH7kznlpkx+9LE4vqw7yU0zoT+1bL+S00+/xH3nR5kX2x37ivfc6asvc087qsJD6mYdilE7eq178To/72yPjBWyfczBBj2v00HfbOZ4e/zTW6JI/89dtiyPzw39Ua48p5omcIz4GpZRSSnlr0IPJBeilyl9kQS+YfGviv3uy91Ln8AJ29CXVX9qmfpCMv9Apfl6U9QJ65MUz80WHl9HJ//Ry6316UVdcW/IT+cK6evH3XN1f1g7fnh/3kp3us17YmcbtSF70K74VacPtKkfPPePz+KexRlf579k7Eu8K+cj67zHFVEoppZS3Bj2YXInpJQ94CdRLlL/0ucwEstML7sTWyx1xcWjgZZB+7Mk/L5bocXjSy+0qD5E5yLdiJd98CU1cHx3u5Q994lHMK5TrVu6Q8Sapf+RlWy/2kPXCzqQDqvEK7K5iVZxpAx21EQPjkH59HiGr+H1uOB4DMujzyT35reblVvxbHKm54/UvpZRSyluHHkyuxOqFnhc5vUj5S+EeWy+ASb5c+wvq1osiP35E3MSkl9tVHgIfblMvlVsvq7KdZNyAPAcToJ97+oFr5SadtMGnv8ROeKypT6zKT7nhlz71+/1evY6ivNz21K84BfKq7yST8Xn8U+zo+vgC8mqj3+vnetQq4yullFJKOUoPJhegF0F/6RV6kUOGa/0y/NEXt9UL4IReruX7qJ7wl9tTDibI8jfu6K98uu1EL7OCwwi2+f8wzj2YJLQr3ql/pa+c/HdHpjxk/73v+/DutzyA3bQhO/Sv8si8hdd3krnGwYR+5JCf+jUPMteJ1TwBz8WZfJZSSinlrUcPJldieskTvHDRd8rLFS9jWy9xzurlemKy6y+EW3mAvySix/1WrKuXzQn08f2xj790sx/l0ks2cXPvL/J8uu/s1/3kD5lVjWijbytO4kKGT2/HruorO1kr9+vxTmO9V6/sl0+vgVjVQqCTsR5l8ldKKaWUZ5seTK7E1gs9L3O8TPkL7R7I+gvlFrz48QJ4xP70sugvt1t5QL6Yqm0Vq9veQ76xd843JrrOl9gJ5YBPDiLoEyfXtCkm2vwl2P3LX+Ynm/oGCH+KN5GN9JvQh9+U8fpmbQB5H0/PJ/sAXdVGbQ766pc/r89Kdup3sEUsUw22YkKe2m3VuJRSSinPBj2YXAl/QQK9aPKyxD0/njS9WK7gZQ95f2lcoZfbfEGewG6+SHIvXeJ7zIOJYlfdkCeGUw8mfMtCv8cFU7zeJ78gm0dBPvNWfNjDr66JzXVBse8dSgD9KQ/aVd+sDeR4IqtY6PM5K1b1UryqM9dbY0vfylayJbsaQ8VA/968LaWUUsrTpweTC/AXu3xBBV7g/KVT8tPLHC9X+YLoL5h7TPoT00uwv9zuveBNL5D4Jv9T/i8PfHp98Ke/MYejBxPdy6Zi8thWL7zIe94ayyOgK318qH2aB+AygB76U2yek5jGDbDhckdAB13s5Vh7vYBr153yy9yOoLoD8azyg9UYKj76p1xKKaWU8mzRg8kDoBcmvQBOfdOL1q0gTn9B9xc8xesvlbwIuj73qxfyo+DfY9DBRP0eh/va8716qX2r4GN3BGSneXkLGDPGbm98tsaQvtW8LKWUUsqzRQ8mpZRSSimllJvTg0kppZRSSinl5vRgUkoppZRSSrk5PZiUUkoppZRSbk4PJqWUUkoppZSb04NJKaWUUkop5eb0YFJKKaWUUkq5OT2YlFJKKaWUUm5ODyallFJKKaWUm9ODSSmllFJKKeXm9GBSSimllFJKuTk9mJRSSimllFJuTg8mpZRSSimllJvTg0kppZRSSinl5vRgUkoppZRSSrk5PZiUUkoppZRSbk4PJqWUUkoppZSb04NJKaWUUkop5eb0YFJKKaWUUkq5OT2YlFJKKaWUUm5ODyallFJKKaWUm9ODSSmllFJKKeXm9GBSSimllFJKuTk9mJRSSimllFJuTg8mpZRSSimllJvTg0kppZRSSinl5vRgUkoppZRSSrk5PZiUUkoppZRSbk4PJqWUUkoppZSb04NJKaWUUkop5eb0YFJKKaWUUkq5OT2YlFJKKaWUUm5ODyallFJKKeUtwfMvfODum69+5/5z6i9Pmx5MHom3vf25u6++8q17uJ5kTmVr8X3yU5/b9bUlg81XvvHtu+fe8a4f6Ftxjs61IadXX/veD8WG9PIXv3af79R3CR/80Efv51WOo+bwQ/gsTwvm1jQHbkXGwxx97bvfv//knvXOuu/cvJynsI/jm/HW+G6R+9K0T52zV6IDU5+DzFac+D1iJ0FPz2euT1mPjOGXvvL18dm+xapO59o7Cnkx5/K5TV1X7yh7kMspNfN6Z9+qLuVh6MHkAvYmvj8smexMep/42nzPnfDoTRuefO1t6lsLEbC91T9xZAEjw0uFQ9vU7uzFgj71/Oznv3xoQ6I+k58Jr6XXNx/iqxxoX/UrL82X7F+NI7a81lynLnzs4y/d12PqE15b7CrehFi2Dn7oKV7VafLn7I3rCtl3fWrwEAfTS9fqETT+q/EWq3lybh0nGMcja+ixyHioETmrVqrJQ47P3tzfA33lQD7XGi9s5VwA2lf9W76Rl+4RtDbSxxZHcj+6lr2u3CsezQ38YIM2lxMpL6Y6yI7HxLXmHjamfCf25ir9qtM73/2ee9tH5x866J66HjyXbOM5sjdm58IY5MGE66z1KazGdSLrlbrMg1NrWc6nB5ML0Ca0mvhM5K2NRAv+3M0jNzptYqv+jAW/0tFCTJ1E8h6PM20wK/DvG78v/rRDjVe+tal4P3bIBzspL7C5JyPbPsbEpMPIVg7CZbLf83K79PG5tbFOvhz6pvy29JD1uiM7zQNHPsiBWHNOcz2N3V5+exAbeBu+cp5fA+xlXteGOlDPvXpMsaiWU53PgbpOc+dWZDxHa3Vt8HduXTRfpz3lErCZ85J72qd+/GqeqI7nIPurdex+vJ1YvF31mHys8HyIQ7EA64N4cg+Qn6zVKv60Cyvb3Pve7fhYnELW6VSIae9bDnxM9T3COTmtoG7+3OGTPW7yC4zBj/3Ee0+eN47XNscv5y655rwpD0cPJhegDW1aoNoEtzYWLb5TJ3wuIvCFRDy5yaKjDZX+XKSeg8u6jRW5aI9uqMi5X7eTG9XqIUc78aPHtceBLvXNWgjpHsFtECdo/LPPYwDPM/vRVV7E6+Mq+y995gubmzTIBrYFuj5HZNPrmnisMOXjZMxqy/mDHbdL3zlzX1C3KT/sYXeV37lcGu8RNB99Pk2sYjmqfwTGaqrvrch4rpnrKbDGWGunzgPpES/jl2vmEqY1yr3WW/YTw7SXArKrvhXkwdjkWKz8EIu3e21cbkKyyke+tQ+eguqzip9+yQjGDtnV/qL4Jn+O5jJ5TP1HUGx8Tv0rHmJ/PBdipwbUQs8lxoEY+cy5Q/9qH5atbBf0T/NRfeD3U+2cI/O1nEcPJhfCBJ4WuhaQJq82LC2MaeL7opK++nxB0ZcPNvwg85EXPzEuPnRyQ8VfyipOX3STP4dcPHbfZGRv2jBoO2Uz8FixTX28zf3KpvzrQaB2IMep3ZnqscUqB+WZtdK44SfrzCfxrXynLVC8OSeRm+IC1QBUP9UGW9PYiYx5C+KVTfwerWmiHKe4aPPcJQusDc87/XM/9U9j6r6ztt53xL9kvM/7E3Ijx8xf7dJTPv6jfOqTrHzhnzhkS2P1/Avvf0N3kst6u77LKhbtTyt7kLHhQ/Fonsle5qOaqKawN+4ge4K/DJB+xoePqf1WTPMTaFe/zxVyneJf7Tepn6z0Vn6yfnxyn/oTkl3Fs9c/sZW3aiiYZ8jmfN+CWNLOEbJOl6I1krHgZ5o/QE1yfPbmwynINnsUzxF9MiaKy2OY9hqxVeeteZF14T6fadfMuezTg8mFaFLnpOXeH6RaGMD1lm62p+60cFi89PPV7bSIUmeKB9DzDRp58pjsaYPeW7T0eS283TcSt4Ms8WKfe+VHrMhN9lLO25WH+0M2N+IVXpMtplp4ntnv8ZIr4z75zlpNtoRy9ZgnffB5IRnNDfS5z3gSfOXX6lmvtLMavyP43Ms+cqCG6lMu+PT8uXY54vV78J+ppt3XpNDY+L3nf9T/pLtiK5bMCXvpJ/UVIyhfjZePk/Q8j6y3QMbtTbFM9iTnuXGdsUiOT+5XOSHj9rnOeGVftiRHm+cg0F3Nv1tArF4v4F55Zz95TnkhM7VP9h3tN9TrKO5HY+X1XyHZVTzE4s+NIyj+9E/eqqHIsadfOeWhew/VYJU/OfqcvwRs4zPzAfxku9ck40N2az6cw2rcFPe0xyQ5Nkf6lJvXhs+sx0PkXNb0YHIhmtjaZGjTovbJPcmxSPxhupIDFqgWJ/ghQ/3S8U1F/akj38jp51DVpo1TZCzg/vYWreKRDJ/pQ5uBZNDxjcr9ye4E/eQjvS2wSVxexwR7+PVabjHVgnvNhez3vHKMVDdk6OPa83JbijPrCsh4DCuf9EtnFe8eXi+3l/VTbunvCB5/9hGrP8QUT44z/b728L81F1J+hfwpn6P+gbymWiWTrtq8jrLncoon64cs+tjhHjt+v5LD9iSHvvuYYpGcarOKTe1eQ9njk3vlL/uTziRHHzJeN2/PWEC25fvWEHvWlXvllP3EnXmpLlNOk31HtUrdyQ9gy9tPqadkV/HQzrzYImNS/JPsRM73U+JfkfMSlEvaZTw0tkeQna2apT0f08xvbz6cA/54Dr33fR++96Vae1x7Yw+r2qzasYVNviGlHx/T+wN91865rOnB5AowYX2zYgHnhqJFBVzTNm1GU5u3Y1PXWrwibbOx8Mk9etyzAXCPfTYC6bIY0ZeM4vV7X7C+0I8sWvrdv9pkA7j2fBLPDxTjJOv4ODw0qxxWtSI25UVtVweTSTfvhduRjNd6zyd9ukeHcZ/mm6MYNSarmrvvqf8InsvUR6yap4onfaq2qh+f5LGyi71pXTqyiR35O+ofqI3XcoViUe1FxjbZW+WhdslSh1yvkxx2uKfd5dD3nKdYAH35WcUGGU/aS92jdV/FtdL3vinOW0BtyCHRXObTYyVXz0v5qL4re47rq6ZZw/QjiGXyP/lZMdVedtiv+JcZsx/ITXXZY5JlnpGrz3f5Vf58TjE7U/xpGxlkvVbEk3Veobim9enIzwS+Mj9imOK/BOYQz6GtOBXHlu+sIRC35rbLAvMEWWxuzYuHyLms6cHkCjCx/aHIJPbNBLSovD31vG3aJABZZPxlElh86dPj8MUJtLMo+eRvKXwxK1ZfzPjFJ/9sIW30nbJRScfluPbNwO0g7xvVlN8e6EybMj6m2h5hL8+pFp5n9nteOa5Z5+yffLkcY4Vt9D2GlU+Nu/wBOjzogX7u6QeuM8a0wedUR8fn2RE8l6nPx1zxKF/JKW63w7ViSnns5VoF7j0P1Vz6p/hXrVS7FatYksmedBVzIpvENY1L+ubT6y3Q95xXubm+bE/5ZzxpL+M6Wnf0p/hX+t4nX7eGXDIW7pVj9pOz50UftZzGGyb7Djq+V4v0I7Dl7RoTjeUWW7VHXznohdP7uac/21eQt2q4hWJS/B7HSnarnqAxoa6g3xM7UiNADv2p/gm+Mk8fk8xvbz6cAzandeicUjvVH3urPcVRDSRP7fY4UttyHj2YXAEtGODFhEWRi8dlNJm1CFz2yEJCRi+TakM+Fwr9emB4P/5E6si/tyPnGy22/P7oRoWMb4B573jsU/+E2yN2ctiLK2OY6ngKXgtiz7+5835wfzmufOrhwD0y+a3VlJ/saJy49zz92n0i7xsvvoiNr7nPPZgktF9SX/D4pz7mr2qkeNKn4p7sYIP8fY5jb7VWvS39neKf2uB3VTsx+Z2Y7El3zwdxef4i9bPeAn3PeYoFXH8rr4wn7aXu0bqv4lrpe99e/R8LclEs1OHUPYe6ZX2d1E9kgzoexeuKz1P3+iTHBFvas7xf4+6g4/EIZFM+/Xib5pDm1BareqqW9Csu/uJwtS4SxbLlI0Eu89Q6IZfMb28+nIrqRY5c49drtYKYcswEMUpOcW8x1cC5ds5lmx5MrgSTn4Wlf9o1N1ktbl9Mvgml3NYiQc9fYAH/WwvV+1/69Mv3uvh1He5ZyB4P15kPsXl8W4vWN7jsQ0d2JKfNZGKqa4I97PBw5lN5TvFNsXE9+YZVjk7WYu/exyXHdat2kLbEND+QQ55r15tkBW308bd11H6qiVCMmr+rmD3fqf8IWzbIy+eJ4kl51VY1SfDhdvjkPsfOcwfZlb9T/E/2JqZYJiZ7imeVt6Df8xf4JG7NF2yn3JTzKjcfr9WYqD39ur2sydG6r2qp9tQH2c5cbgW5ePx798StvOjjHry+TuonK1334+3Y8nZqvdqDjoLNjIE2Yl/1u9wUJ7rSFxp7dLKNfLnfquWkL/DlcXhc2NzbG5BHxm0cQXoT+Mv89ubDKSgv/WtczAXa+fSDJSiOI75lF3IMJ7C5JXfNnMs+PZhcCTYhNiMWwrQxaFF5n3RyQWhR+ULwhTpt5OhMfgW2st/biCE3U9qIY7XJiq1FS6zoa8Nx0FltHvjzjSohX8WV/rkG8iI/HVLQSRvpe6+Oe2Qs8iHfU6zyR668DKkmIuMWaUtM8wM55OVDtZtkhfrwf843JrrOfCZOqTlxbc0p8lOfYkj7ipscuNdhXf3YUY0m+anN85W/o/6BmKeX5OSoHGNALBqbbHd9bPqLAHHluEx6ysPl6F/pZizI+nhJ130oFh+PtJc1we/Rusu+bEmXttQHfGFDMV8L4vC4joKO1ytrk/1cZ17Ien2d1E/on+qEzak9/U/xnILGXvk62KYWPscmmck/eYG3IYOs10Nt+OdZw19O4nML10ePtow/41IuKSf9qe8I2M08tU4me6v5MNVrC68b/vJ5n/lPtU80F6SnPPZqM9XAWeVcHoYeTK4Ik5cFME1gLSpfaOCbiut5O7ieFp/3p4wj37nw8DfpaDGrD7mtjR27q0WNbj7wVKfVgxCmjUpkPnxONXcb1NNzUI76Jx7Vh9xUk6MoFsWIXf18MPbp10FJ46YNk34/JChG9TuyP+WddrydeNABfKe+7Co24kXv1IMJOdPPvdtH7pL6gnxMudPm4yzZ9Km4idHvlTfXWT9iV798extoPsnfUf9C4wKqaeLjOPULxTbZybgzPuIiPsbR5Safisdl0Hebq1iQ9fFSm2xJR/FoTNJe1uTUunMvf9jRvw6U+oCPqf0SFFfW5wjETkzKmfiP7jmCe6+vI/vZDqr7FDdtq/qp/op5ZX8P1S31ZZdc2btUC5cR6E5xEqPiFFO87ov2rVqm/sr3qg/b+FFc5KTc1JfraQ/8ZJ6r+TjlD5fMX0B/et4Tl2yufEuO3Fd1xy518do5Uw0c+ia/5WHoweQZhEWWL54sXm1iWsAsQjEtWBaab3yulxsMsqsNT5uS+3P2Nqsp3hXIfeAnX7z3p1hWmwZ+PW9tPorXdZCd/CVbm1fm4Xlzje4lG5xvrjCNKWTegN+MSXXQHEBGY0yfHhRw9GCie3zRL18COfnLvlPAzir/Ui5FaznnsNrPXcMrWGPTXybsoXi0J2gdgtYo7MWr9cQBRrb2kN1pncum1jpyrqs45ffcdaz8dL/af7xO8i0ytiN4PXPsppyIRbpHDw6Zm1CO9DFeaetoPrLtY4gtPWM8B3KS3hR/1uBU0NPzZuqHXHs+pj4ee5Cr5w9egwn6TvFRLqMHkx9iWGh6cGhD2lp8Lj/1PxZsEr6J+KaZ5EMIHmqT8QfG1A8PucFhV3krBo3rXkzZjy3FiQ3/MR/wh0I+wPKh7NB/jTkk/w9Vy/LDjdZN7h/Mt4fYA7G7tUZXXGvP2Vu3DwWxTXv0qagOqz3fwafvkafw0PsOdrWHH8nlqXDu/BWM3+pgovGCW8zR8vj0YFJKeSY58lJWyh7MH38B1LzKAwgy098Wl1JKuR49mJRSSvmhRX8L7n9T3cNuKaXchh5MSimllFJKKTenB5NSSimllFLKzenBpJRSSimllHJzejAppZRSSiml3JweTEoppZRSSik3pweTUkoppZRSys3pwaSUUkoppZRyc3owKaWUUkoppdycHkxKKaWUUkopN6cHk1JKKaWUUsrN6cGklFJKKaWUcnN6MHkivPzFr92j+09+6nNvut/igx/66N03X/3O3XPveNeb2t/29ufuvvrKt+5teftj8fwLH7iPi09iJBZichna/Z4c0FnFjK1XvvHteznlJxtZB+5ffe179zpu4ylDzNO4Z65bPPa4T3PVx97bVxDzl77y9bPGassXsU3zLjk13qcGcVO/VZ6Mz2rusF5YU5k78kdql5wzlhqnd777PfefuZdtQZy+7ieQee27379nS5Y6nbNujs6zo0xr6qFgnLSnZh91u+YeuuXrWmCbMV7Nd2drXcC54+Dzgeu9+XmEc+fmFp/9/JcPjS15kA/r59rPVGxNe698bq2rHDuN/apOPv9kXzb49HHi/ll7f3ir0IPJBTD59bBzPvbxl+4n+NQnfLFNGym2j26IyK1k9xYXevLrm88WWxuFQ1564eGFg5w8FuWNTc/dN4+0431bG8teLtq40Mk+xQhcZ790qV32HUXjleOsmng9IHOFKfajKAfIGBz6VNOpHyZ9aocen96+An3Nq728Mp5V/FPNVmBD/rmXLu0rO6s4X/rMF+7lpz44Es+pUA8OA56D0Bi+930fflO7QFfrS22njp+Df1549uaN8FpzT32kO9U4c2TsXTflYTW/Hfzh95zxWc2fKRbFugUyR2K+FMW5tX5WcTA3pv3RSV10cm+n5pPuihz/Ceq39dwTygH51dyZ2BtD+hUnzz5sZzyr+q3mH7V0vyv9PTwOfPk63bKZcW3N8S1y/DIvQZt0ppr43PF+cnis94fyMPRgckWYrL7IxWrhCRZEblrIrx4Iji867tGZFpLji0++PT6uc/MAdND1TWCLjA3YpMHlYCtuDnqnbixcTzkkKecxuy/65G9rLFekLTGN8xR75rrFqXFOMYgjtiZ98mUs+PT2CfQz3yNge3qIytaqP9faVNvMW7amOk36E8id+63QETJmIKbMN/E5z71yzboJrbE9uRXSl3/s5FyZ5hTk2kAn1xV6GguuvR7eR/sU3xGwg0/invpXc2GKZ9LfwvO/lK0aUNepHYg77azi8r4cL9Uw65XjLNIPn9xPMa7w+sM0hwSymesRtuohjtZC5NzZ4lRZ5bhVi0S1X8U7kXVBN/cDtWvf4ppx2/JD/DnO4iHfH8rD0IPJhbDQxLTAuNei8HahxTEtqBW+QPGrTQX2NqRp46GN2D1G36wkw0aRttU+xbmF216h3LyGsLexPP/C++8/uUd/a4NBJmPThrjKbau+Kzxub8/xA+XlfjJXB7mMccUUu8cw1WNCtc12/U15tov0vzc+W0w1JS7Zw3bWC52c666jtmkM8KN5pTaY4pjauMamt10CPs5Ze+RADNSH/LgmVuyRGzb5zDGRP9VkynGPScfn357NHCsfY80lvhnSj7W5/JbtabxPAT2Pa4Vq7m17NQH6sL+qyzlQG+YDvrKu+NFcPzImmlPcE7fH7rVJW+5H8pDxiKwzn9yn/oRks/7Zn+slUa7YmfqPQH1WteAb1711PdXGmebZCo9jb6ydU2ovfPxcX7nTzz05ut2pbQ9sUQdskxO5eX4ZP5/EcMr7Q3kYejC5EE1uNhImvdq3Ni1tbJLze9f3zX3CF5wWFbGgO8nDKRsP/mWTuKdNYcuex5d9qpvnjpz/uIk2V7fj/lYbCy/H6NKPHNdZd4EONrTxrHzRJ39eX/qw6+Mr3G7aEqtxJi5vz1ydI3MFkPHYuc6Y1Z+ykLUSk3/ypS58cj/VLnOkL31uMdVUMX7kxU+Msa7imupH29SerPLP3/lY1e9aTHFstSt3/Y2iPqknOswHYpZc7nFT/fdIHT4ZD437nk2voc8frj0+/ew8drDHvoIecm5P0D7tD0ch/iNjS7zKNdvdv4+ZaoR9Xppc71w0pl4Pr2fG6X0ONfb1BGnba5Pjq9w8DuB+qmfWecpjhWSn+q/wcTiFjHPiaC1Ejom35z6+Yi8XYto7FMlG1p7PSR4k43Xx2qqdPdPlHcWGjnz7mqH/sd8fysPQg8kVYLLmhuKLzsmFsfrRjpW+IxlfYFpEWxDrj/3Ee+911JYbQdpZLUrPJ/ty4U/gRy8U5CM/XlOup41lsrcFtqZcJ4iLeLje0vM4vZ17cqcG3K/iPjLO4DXIvqM2PCdn0s+x43M1Byb9zFf2Jv+A/Xzx3WOqqerOupryTR3kGdupfrSR8/Sglt3VuCgOjT9MdbomK/t7frdyINe9cTmyzlfIh+o5janjdUUnx0T29vBY8cU4H9VXLfmc+oEY+ZvvqU+5JthTH5/uZ6VzCRq3KcYtFNeevvYLYteY5fiq9pP+CtnyGHw8V0hWtfTx019kuJ8tFMPKPz5W+6WgFtPegi0ff7GaB1P71JY2uXaftG2tv6xf5s6n6pI6kkGX+x/50R+//5R/6uB/QaL2hH0dPeXBp/YnbKvmmlf45Vr721Z+e2CLGJRLeTh6MDkTLbhcOMAC8U3AF+zRheH6K3xj8YWKbsqu8I3D7eXi00JPf+Qzba7056YEtEtXqF/yxO912ttYPO49PJZV7EdQDqpL1ot7jbl8TeN+ZJzBa5B92JhinJjmhmJQ/Se9xGP2HIiPevBSpocE7T620hNew6Njgq0P/OSLP1BTr7vbVb+Pg2LinviRm3y5foKeyypnrwnI15atS0mfe+2CeKmBvlVQLlP80/gdyU0yblPjgy/ZXa0TgQ/sYE9t6GbbJLeCmPZk8eHjm/3KxWuwV/ctLtG9BvjWmJyLbIDqm+M71Q1W4+e2uOeT+9SfkKzndYr+Cu1Zbpdr5kvapSYa161a0Mc1n67rPrbapzbu5Vtk/oqJw4HX2fsUb+rymTopQwwuo/4pr6PIttvyWIFr2jIHoCba8/aQr/Kw9GByBXyya0PwTcAXrMsiM03+I2ghYwfbWmj45G8V9l7ucjGvFpzHPvWvFrri82tsERc6kk2QYUPm61T5xfbexiIfK5CfHoAJtqgP9sBrNbGyy73XbYob8IFPb5tQXVIfjtpY1Ul5pn1iZrz2aiZ94IHG3z5y7flrnqV/1W+Vm0Av56Hik2+Rdcc2n9x7HbGpmkz126q5+vEnGR9jr8nEXk3PYZXHql0Qr9bX1A+r8fO+KScfI/rxpbHBFnrsV7LrNXQ7Ahtb44udrPWE6qExdJsOcWB/1a/aSs5roD6XB9roOxrrBLpp95ooxqlvRY6NwI7ac3ynusERW9zzyf1UoxWel/Tln89Jx5nqspqHHis19Tz3apFjsBoT2jPGFci6buZPTKxH/SUF8RCX5PZq5/lOMui7TN5fCn6I+VbvD+U69GByBTTZ9W/wM3mZ6NoEfMFOC8Pt+OamRb1aNOr3xYJPNhagn3v6getcYGmDz2lDc7RZIb+30FUH+c1c8M/LrLchjx/FhO4pG8tUN/mXTZAfx/u35Gijb7IL3GvMuZ/iBtXH2ya25OjL+FZ4TTyvyTaynkOypa8+HUSnMaGdfuric2piimWqadYdiEVt9MvXS59++f4T21P+2EeWz+wDdED2pngS+qb5ciqqp+p/Kp4v1xon9+FM45d9ykk54ifHwtHvgeBfdvdq6OO7VUu3uQJf5I3sKk58EM+qNpo7UyzTvMpaTaCncdqSuwQfo3MgB34ceM8GuYDqm+O7qq+Ps7e7Le6nuq9Q7bGRbdLnE3uKz5n0J+gnd/ICnm9TjFMtXC77V3N6ap/auN+bj3x6fZHXWHr7Ed1JhhgkQ1vuO5KXz2SSv9X7Q3k4ejC5AprsTFomL/e+Cfj1tDCE9NU3LRAHeV+0HEaQ58dozj2YJLTTj9yR/oyZfjYTfE52iEebhtqkozaXmeqXG4tyzM3J8xbcew0F7fgijuybfE12Pd8pbvC5IdholTusfIjJxkTWSUjf67aH20n/Hi9QQ/0NnOspHmSQz9o4yOX8mWqadQf6NX+m/oxfIJMxJx77aowdZJD38b0We+Ob7UD8jCdjpFxyrCe8hqqT+vbGMvG492ro44dsrk/6Mx7H9xWff8ivfidkQjGotsTrtZPtrLvk8OntQjr61OFtkn0s9sZE+Nh4O7n4mLmtaQz3cB/Y0dp2n0fRXNF48Dn5dMgn7YByoV85s++pbZL3WuTcIDae48pN80L6Ymqf2rin3dsy/5WtKe9TaicZbGj8ZFeQu//lrvuCaaynNnR9nbsMeM0hc9Y4eNxqm+Iq16cHkyswTXbfBHziT7ICOemAFn5uCG7bwSa2ebHd2+y1wHJzSWjXRjL1Zyy5gHUPypk+3Wc9JE+MsksbMkc3FsU8xcG9xyxZ5edy6WsaD8lnfcHtrsbdY5Ettw/0Y4++1Afk0/eKtC19xQCKQ7WDKXeR+txPsSJDH3a9P+8n0PN6wlTTHM9k6s/4Hdr37Cl2xcP6m2rPmtTfniI72TsXjQ/xZN8qP2SJi5iIWzHxqb/YkKzsY0tt2Tf5TrxeatO84HoaUwf9rfEAbCBDDm5nmkOwZRN9r02i+cELFXl5DdCZ9uGVL2xpnDRmp9T2odgbE7Gqo9c9baEzrf0jtrg/GtuKrO8qHpfVXHU0DxSXx4lNxl0+RMbOZ84hBx/um/ucW0fRPPP88e9zXfGA9jTppS73fHoNJpkcvyTlnYwPVjX0WF0v5SHrqjx8LGSXe2S9DuX69GByBabJrslLHw8nJjX9k6zkJaM2LVJfNJKdFoZss3jO+cZE176BrUBO/7IGusTkfdjCvtqzTfeZC9f08TdNxElO6oNV/YRsTy8KLiOf9HtsXp/0pfqgL1tZzxVb404sfPrf8ng/9vU3SR6ry3gNV8hPtqc+1xrL18fg9X/XfeXD9YmfPCY/8g+eB7XD/mpMIXVgqmmOZzLZoW2VGz5er8H/f1zchsc+xZNM9gD/qxiOsFXDKT9iJwf00CHuVY4uT7tkhNvKviTtguYF13s1nMYXfeaq1o/suSzX0/qCyaaYaiOUt/Y36n+kBgk+0PUxIn7dy4/3J/Rt9U8Qq9b5qUx5btVR5PgS86SzspXzZ5pPp4Ae+vjj26kj35pproJqmPWY4kw5asGcdNuTLUGt3Pdee4JMzhHPXzEzNnwSi8srV7W5rmT2kI/VeG3ZnNZi5sQ1+o/1/lAehh5MrsBqsmvjYSIDi5pPl0GHBQDTYmEBpI63aSFrU6MPv6ceTPgbEfpzw0CO/mxX3ypu2SV/yWGfPj4Vv1/z6S8P9KXvVa2R9frKv/IU2c6naufQrvHLPvk4BdVgFTef3q4+r4fGLmWJZ9JPkJli39KnXXmvxlr6q/hSDjyOVW0c5Ke5MI1PygmNfca3lT/Q5zaVA9c5f47kkTKqG7Zc9ijS95o6e/mhnw98QEcxqXaTj62+xGvnbdJdrW9BPBoL1d7rlvqS8XWUuM3sW9UG5EsH94zlCOQ96U1jtpLV+J/q2yEXbGzluRoTgX/ic3JOuC2uGZcpbtqmMfG6nDLvVsiGYsUvdZhyTX98rubN1Kf6KP6s69Y4buXq62cLZHJOcU9M+vFv/cjtKi9i1jxRTFO8K6a6KAbQP9s82aQ+uRY9dz59ndOXvrLmQjHI1iq3c3Iup9ODyRVgkuZmponuE1gbjxbLJJPQp0Ur5At9LURftHD0YKJ77NI/+c/FLWQ722XT7WlB48djVixAn9ubNhFvYxNRTaY4vN/xfNDze48p/SsHbV5beL4i9dyXt+OXGnlc2Yct6uv2TwHbf+qzX3zjnhjAZdQu34pX7Vl/7qeYU98fHoAu7arzBLnm/MzxAWwphmkMJj+qpbc5ihtb+TdpHvsUD+Q45TxY6R3BY1vV/Uh++PcxSVTLjF1QB89xRY49EJvs7tUCuVWuqoXGRnVHnvbJN/ic4V52FPPKX9b1aA0APThqWyg277tk/gh0NbdzjFf2M99VfbOein2VI/iYIOd+NL58YveSvDO3ySYxyvcqxwSdKTfVYpW3gx/8yfcqV2zlmE1kTFxjX4eRIzE5jA16iu8o6Pj/Y6LxPGLT669aog/0u60c22zzeeV6IuedIL5pzZbr0YPJBfjE1aLWZrK1yOk7dRPYg1i0ORGDDibq9wXvGxwLcrXhqf+hFqJ868eUps0BcrN6K28MjOHew8/H+q3ANAe5pk1jDqv5cSnUcm89+hy89vw74n9CMe3p7tmn1jyspzmHnuq/tU9cAj40n/3Fgftc+7CaB9jgb34ln3I+p86pd4L9W85Jce78WTHV/Jr2rwUxPVT9z4Fx8Jo9VmzUQetn6lvFxE9J+JpP2S2Q1Tw5JU/iRGe1f27ZzH0Kmb4/vDXpwaSUUkoppZRyc3owKaWUUkoppdycHkxKKaWUUkopN6cHk1JKKaWUUsrN6cGklFJKKaWUcnN6MCmllFJKKaXcnB5MSimllFJKKTenB5NSSimllFLKzenBpJRSSimllHJzejAppZRSSiml3JweTEoppZRSSik3pweTUkoppZRSys3pweQZ57Of//Ld8y98YOz74Ic+evfNV79z99w73jX2PxRve/tzd1995Vt3n/zU58b+Ukp5KNgP2fdW+2IpD0nnXymX0YPJMw4v/y9/8Wtjnw4IHFCmfofDC5vpq6997wc2VOyfeshA/tJDkW/w5LDK8wjoUwtqMvWDanCLAxU+M76jD7iV3NHxJ+9XvvHtXT9bqHZH5lp5M1vri3pS1711hI1J7ui8n8b/iG5CHK999/vjPMA++8uqHzRnL12Dq3qsmNaf2BofWNXvFLBx7fVDPNjk85yxvATqNT1LHgvGDKa+xOuUfVvzYovHnH9vJRgD1tLRuolzx2nFD1PNnyI9mFwIGz4PWkcbMuhB7Fxzwu89FIlvtUF77Fub6DmLlA2CjeKSBy056YEB2PPNh3i5V9x8Ir+q9V4e9J3yMFmN7x65gapWGdvReMhrb4y3xgH7Pod8XqxIf8SaeR0BO5P9LdL3KTa2xv9Uzh1/H9OtdbLVl0g2a4Mu7e9893vu/U755/gD18h720TOFbef43JkfmDvlDW4An3snFI7xZ665LE1b7J+WZOJHCfsH6nPKXhcjD8+HuOwgH2ti8wzOVKrib1xxe+eb0FdJtlT1l/ymPPvErA71XcLxeLjfCqrupwybuKcOPBPnak7n25v1V4ejx5MLoQJ7g8UJrMeBsC1JnhuQNcCe9j9yIufGBfhhG8MGWey2hjP2dTEkRp4Lbmnfl/6ytffuAevf8oTNz/qxia/5x87KeP4GJ8DMWnz9Nqrjxj5PFJTf7nAFrrkDlOuE55/1m2CvtUcOcWvYk0bySkPqNX8TI7KncvKPm2r+bNV+5zb1M7nDnanGgv6ZYMXU2xwnXXNGPjcetD7GHqMbhP26o3uZP8IX/rFX7n3O/UdwWPOuZ057eWR9ZtIHw5t114/MMXFPACXuybKhZrp2udssjV/LgH/Oc+T1TxXPKt+2t7/ky8+mfn3EOBvr34TqbcV+yXrXz40x86pD7q8T+T8w9bkU5yyBst59GByIdPi0ovjamM7ZxFtwSJhcZ27WKaNMWN2VgsTvaOLlo3gko3da8gmhW/8+oN4a1N00FttbqoFn9l3BM8zN0CBX9/MQTFt+ZXtSUZ9adfBr9dUTHXIOeLgY5Wbg90jcoDNrdgd5KY8JqbcrgVxTPanvDW+GZ/WD7LTIfzo+hLorGqueLGndYM8exafqUM/fZ7jEfvZvgLZU/MTe77o34oT/D7HJSFv/E19UxwPtX40JlMcW3i+14K4iM9j1HzyeexszZ9LyDGdmMbE40Gf+9RhjmY+yD72/HMb53Du3PHxXK2BLVZ12qrRBHLIe+3Owf36XrgnO/WX69CDyYXkxuoTG3zj00La2sAeEhaVL2Kuc9Ng03npM1940wsCcoo5c3KoxbkvFhPYwd7RTRh531QUN5+ygQxjoBjlYxoTdKjJUf8JNlXXlY3V5or8Xi2VG9ce62Rza9xo87pNrPTdr7dPEK+vlS2IPWuyArlp/JKjcueysr+VN33K02tMPTP/aVy51hxzkGP+TH3g8+RjH3/p3q8+8U9cKTe9YGr8Hc3bVT0msIv9o/KJ1zFR/JNt+ZXuNM/38kAWnayNM9kF1Y9Pb58gBvLwebSyC0fiuhb4YtwzPiC3ae6ob9I5AvXIuXcUdKfaKR5++mCKCx3yzFywd6v5dy6TL7HKJ+cUcl6n1MvYV7lo/uQ62MrdffE5jXMy2SJ2/SUQdmQzY1rFWK5PDyYPhC8oJjKL4toT2hejbPPJ4snNZmtREafrpA3PZW8zm3yfizb0o3UjNjZ51QSICTvkwI8w+N9CqyYuv8f0sJog5iPykiM+XR/hl//cr9798tdffVObcl09BGmb4qEO/rCZmMZ9qnficaz8T1APmPoS5CbfE1NdrgVxnFJ3cB3GHznmKZ8w5QBaE5NP7lU7+Wbep5xYjb/m4+qlUjKeG/faA1b1SE5Zh+7LIT5sTHGu+rCjGqtefOpa7OVxy/Uz2RXKT3PloVAeXjeuc16QT8ai9qMcyUV55zgmU+2wjy7rZRr3Vb1pv9X8Oxfl8vwL73/T+pM/far99Rze//s6r+eSc1J68pGxr3JJO2Il76iOkmNs0DvVFnqeG/fkrDmH/hRjuT49mFwAE3jvwbKCST7ZPBUtSt+wWXz48LbVopI+efDJYkSPBanN1xe0NjP1OfK7hW8Me/XT31qtNhPikiwxY48HiueozcXtArqAfNZvqilwT3vWcCJrOIEd/OshqHbFnP4nFKtq5DVZ4b4Af4zpe9/34XtbU47TuKuG+J501Kf7ldyEbE99SfpZcVTuXFb2V3lr7DTOkmM+ME6r+eO1mXxyr35dT3Iix3+aJ4o1beSa8HmPvmwl0pFd2tzfBL7dV6I8j7bLHt8Q049das9cdzn6VrWDW66f1R6qfJD3fUQ+dX8pxIS/3KvwkbGSO3PD/ef8WTHlskJ+9uxOY+LxyI77nHTEqrardo3npfPvIcDfFHOi8T+FzEVzeBrbI7kzFoyJ6sY9dczx37L10qdf/oExVVx7/sv16cHkyjD5tfiA6yOb6bmsNmzuFQfXLLDc8IA2FjUbsB4ayHOtheoLWvKrjXn1MFCcq0Wem4vAJnib4/kDNrQBgnRXdZraV7Egs8ovQdZrOEEtVFvP8YiuQHeqqcfq9jI37umjVqs5Alvjjv+pLsrN74/WD1mvyRbI+ZhvoXg07pPMEaZvrE6BmKklMaimtE1jucUqd9VONrds55yYUL3SRq4Jn2vuc9JXm+SmPBL3lRA/vj2PrbWk/wMK36rXxF7tbrl+Jruu59fUQjGq9lnfo6Crf4BgGo8pVkE8GpOcPysUL/JTv6M89+Y0fchNuSkeZHxObc2nlIUt+WvMv2tAbMSo/OVPn2qf8qDf67WVL2QuGlfp0C9/K3K+TD6n+bKqI2PAPHBZQBa7HHLcX3l4ejC5gGkR5eReydGWcucwLUChBYe/aUEC7Sy81zfx17+mPed3TLhHZ5WX+qc41T89SPC7VSvPHznQxuW6qzqpPcdnhWy7jQn85GaZ6G9pMkfuJ99CMfj4AteqH/4lt4oFn9qQjzzEp3GHrXjpk5zGx3VXnCrrflYclTuXlX3apnnj4wJaH7qe6glTXdDJMdTcxuZW7vT53JmQrbSB7YxPObnPSd/7+ZzycpCZ6uggI//ko/k9yQr5lnzmM0EcvJjfev1Mdqe60k9d3N5Dgs+9sQJqd0RO82dvLEF1Uu6TDEy1m+LxXOjX/FK/g8/Hmn97NXtsNEanzDFkyWdVU41jtqsv63IUnxeTD+XCT21M32KVh6UHkwth05kmPu2rjeaUhbuHFtC0+Xls08LnXrraoLneW/CTLfma4gDk0dvqnx7uyK82LVD+HKbQ5xd4uaedOusr3cxBYzDVb7UZIiPb2Zfsxe3gyzfKFdj0GqPn947b3ItlVXuHvnyIC3zt1QU9YpjqOkHsR2oCq/FKjsqdy8r+Vn00puhqjLbGA1teF/Sxze+loKMfC6HP7axik3+9QBED93sonykebOj3ZLinXetsigHSzgQyqzo62FGc8r/Fnu9V7cTWeImHWj/k57pZZ/oZW3SP1O5aULMj/ojP59Uee+NJncmVT79eyeaYZD3Bx3fqTx57/p2Lx3kq1/jnuj/wky/ez03iYJymtXEkd2RA99MYcU1bjsc0B8BtHBnzcl16MLmQnLR6gNCek16L45qbzGrBadPBl2TYBHyT1oaYcWLLNwrfHKaFrJy3Fi96Ww8JbGjz9/Y9PeWmGH08lJ/LZZ0S5Z6/5Oe43RVZwy2mOFVvQRx6efR2QTvjzWfmmrFk/KvaO/TluAvsqeberpj8YZTjsoL+LRnl6PZPYc//qWTNnVV9hMZWY741Hlk7rvEpHf2eA23uFznZp4/2Fz/2J+9roX+NS/74zB9fUH6yITIekTms9AXtOUYTymeyIXzeHRnnVQ7Cazdxy/WTsWOftY6u3/v6p+/o3nQuxHR0rI7I0Y+c8pqQjNdja2ynMdmL50i8yDzm/Ls21IX5sTWfE3JezSliz3cPIC/0tnT3cteYu4zafJzUhq+U8zbI/Ccf5WHpweRCmNS+AFhcTGramdi+8U0THBkWLZtYLpAj5OLCNrZyI5Cc+9HPuGacydbmILvTxuPQt7XZ4ZsY/BdwkdffvLp/rrWRZ/58oitWchM+dopnitf9r8AGtlY1ddKeYpU+MfiLa8p5noCc+85YkHVbW7kK+lZzBFvEQTzZN5H+J5DxnJ46W+O9VR+NocabnLfGA1uqi4+J6xCLvilUnb3mfOpvPFdzPWNWnLIhsIsNb4Osx0pf0L433hlTQvysE8ngmxhYH1OMYs+3125iql/iY5V9e3klikc1JTfutee5LbVn2yn+zoEYj/gg9mvFMvnkmjZydlmYxmQvnq3a3Wr+ATJbNlYoZs2dI2QuacP7iYk+ZFzHQX61d+7lvlp7GnfFkvfAdY6lcnE50Fhme3kYejC5ECaqL1pfnKtFr4XmiwXZ1YNrCxYuNvlULFuLBznwtj3fq81B8e9tPICN3AS8T7WZbJGPt3s8ylk5cS8/yKjda819gm18yO7ehjfVw8HvarNNPE5HuUH6W+WDnawh1z6+yLi9Va4Oflb5eM2zL0H/yAZPjFNNtlC93DZ5TvW7Jspp5YP2qT7SU5665xsMPjX2ieT5VK7o+hjiExu0S1bx+fWkK9z+NO9XepPs1ObQrrxWrGRooy6er0N8rAmvnbPnm75V3LCqg0MdV/HRd8762bKpepO35JTjXj7XAB9Hcjol9xXKdWVHNcsx9nnhrOzIT9rhHr3VWDzG/NOcmPq3IDbmruLO8XDfyn/Lj2RUy1VNHM3PSe5o7vJ3BD0fse25cK8+9yHkC7mpv1yPHkwuJBeyJi/tuei1aKeFnrJH0ELa+mcqj7Dne7U50D75VA2mzcDl0KfPN4cJ1QkbvLTxiQ6grxe5c/J326v4ksmPYnH28hLUFl9Tn+Ijv625oZpPdmRDccmWxzzllPmvHhBpfw/FiL2p/wiKxefalINQLtM4X4JquKoN0JexqWaTHjmtXnSR9zGexhA9rZFJLmuw5U9M8WJzqjkyOV+38oXMS+QcVE6yR9vK5oTsua+Vb0Hf5GOqvfdn7Ks4PZcjKFY+fYyF1oTn5D6uvQYm8D3VJPEanoJqKX3PdUL5e+585nMPe4p7GhfNa++71fwTUx5HSV3Pn3v3rZynOQead+SnOitfcLsO9tDjJzgku8dWvSYU2xS78jpi8xTZcj49mNwYFooW22rBr+CFXJss+Cawhy+svY0N2VM234dAGwKxa4MjLq/ZKfmTj2p/69zw7+MxgcxqY/9hReN3yrphrudL+7lg48hL3mOPHXNpbz45rPvVwcTXlF7KvC/ruHoB0Pq99VorjwNz46HnPD5OPWQxL5nLp6yPp86R58eKfPZTHx837PIPatBG3fJgx/1qf0iIc6o9Pvd0zwE/im3yW54uPZiUUkoppZRSbk4PJqWUUkoppZSb04NJKaWUUkop5eb0YFJKKaWUUkq5OT2YlFJKKaWUUm5ODyallFJKKaWUm9ODSSmllFJKKeXm9GBSSimllFJKuTk9mJRSSimllFJuTg8mpZRSSimllJvTg0kppZRSSinl5vRgUkoppZRSSrk5PZg8YZ5/4QN333z1O/efU38ppZRSSilvFXowuQLPveNd9weID37oo29q/+SnPnf31Ve+dfe2tz/3pnbBgePV175399p3v/8mZAd9SL1zefmLX7uqPQfbMPXtQb7Ujzp6O3Wjfg8V8wQ5+Bg4Pl5TP1wr5kvGSnGuYky2DsDEsDWHle+Wr3NyuST/c1j5o42+bL8WDzHHNf4PGbdzq/WL/S995evjvBXnjh85UcMt26WUUq5PDyZXgIfXK9/49psezHo58AOHWD2o/YCjh/qkD9hY+Vi9JE4vX9yn/h5T/MSyerl1iCEf+LStXh72XhDQU757NRPIIIsOut7nuWHb+1xvBfaml7RTwfdU56OgezQOZKf6q56r+QRH5uA5uWTtk0tqM7GKcVUb9U2xHUG+VGP3vWdXtd2r0RborsZuj1wH2FrViFgfcv1Sq4zHoX8V2x7obdkupZRyfXowuQJ6+OlTD/x8Mdx7SPvBBPKBmg9Z7PiByPUl4yjGqS858kDHz/TiAMTx/Avvv//0dnR40HvM5KCa4NPlJ1RX7GCPmnpeXE8vFFN9uF69fOzVayv/PfZqe2SslM9kfwvVT/M0+1WPVb/PYWKkDquaw5FcknN0LmHlj7a9sUqmebaCelE3973yKdkjdq+NzwX3T663XL9eP9onfxOq72qO7+HxllJKuR49mFyIPyx5WPGjBXp58AesHsB6gE/I1kde/MS9Xj6ceZj6Cwu2poPJS5/5wu7DFtt/6rNfHPuO4Hl5THpRoJ14/KVlghq5PtdbD/3MWW3k7X6mWuULEBBn1lnsxZIgSxwe2x74n+q7BTroHqlv4vXza/V7PchfvlxftXZ9cvc60obcFP+q3s6ptb+UlT/afB4dYarrBHazNviDbHdyTLZq7eztPxNaz+hP45b12Ru3qTa0nbt+1ce+O82pjC+Z4imllHI7ejC5EL1Y8jk9BGk7+lKgFwxsoMO1Hph6QfAHcz5UpZ8vLgK704N9Yu+B7iBLbPj3GLknvlXe3k/MxJ45Jqe8SBC/bGqMUkbj56jup9SLuFYvTlvgn/jypWryrTmgPLK+3Of4Ky61ef2mWioeHY4zLnTwwScxao4Q6yQPnsskR3+OwYpzXq6PMNUbaFOORzlFR2Pqvlf6Of4i58HEEZmEOFT39Aluk/5brN/EY17htc14lEfGh85WXqWUUq5DDyYXoBcFHnY80PKFgmv6eNDxQpUPRddPPvbxl+719DCeXiy4ll1nigWmh+tWDBN6aB/R++znv7z5MqQY/YVLNduCGH7sJ977Jv+qk0g708sGoIcdYtC9ZKd6TSCLjvtb4b4g/YPXQ21b7fKvl/b3vu/D9/fE73r4d918KQPFw99AT/lPOoBc5iHcziR3Sp235tO5qD6ql0PbKi/15xjv4X7k2/PnetITq/GfZJ1TDnX4QGcrd+IkF+WAzpF6EOs11q/LSD/nl2KUTt5rPrNXub89Mt5SSinXoQeTC+AhN/3oll4S/OH1zne/5/5TD1M+/YFOn14wdI8MNrmeXgizzfXp49pfRNyeyBhEPsBhimGrT/H4A13g80u/+Ctv3MvXFOMWq5eizCdjkT/k0NeLDPfIIe/2EunIP22yuULzQ74g/QO15CVyb6x0r3hdV/PSbUtecU5j5vGoZvLnOvlimbhf/CmXqQbevwXx4JsYpv5zUV2IO8eQ+60X+ox9755r9yHftAO1TpmU9fF4KPDh82qCGDXeijfz3cNzcnuZo+Zi+sua4Jt72nUv2ek+18Aq71PzKqWUch49mFwAf8vG307rwZgPPeDBx4vN9LDbe9GgXQ/ZlW1/qOrhLXv5MJ0eropBD/w9Vi8rGQtw7S+SUw7I4F969PNSTc0m/0I5nlLDI/3cK0evl/x4/dQmuSnOJGOZ4sOe5L1e8jflqj50vF9xTTqam/IlPB5kqIfG0OvjtvDjesilXcdlvc5b5Hy6FrLLt5TUQ7Gonfk41Q8y9r17rqcxpSYudwTXPQWv/YrVOCf0Y09y5PaY6zf1qeHkz/H6M5d838LOpAOnjk8ppZTT6cHkQvzB6C8dfPIw84cqbf5w23so87Dk5YAXpumFLB+qkpe97E//sIrBcxGnPMRff5l9/5viTpuTb/p5sQH6uacfuM4c0wafUzyOv3BN8urHn+olP14/75/qlSCDDWypDf/ehgwvddRMPtWve+UKaiPuLf/0IeO6OZ6Q8QC6aqNf9QGNr3KjzWPkHvm06Si2I6g2k51z8TpwrcOJ2ll/q9rSjuzRe65ly8eOdtUqc57AhvTd/h7T+E74OE/9IP8aayCux1y/qU8tlB/XyKve6vd7H3u1lVJKuR09mFyIPxj10ONaD0rQyw59+pGu1FVbMj1cRT5Up4c+LwjIcY8N7ElfMsTgD/4tVi8r0wM+2/KlgDjdNrESC/+q2LkvNgnt9CM39U8xYZ9xcrvyk/UTaWcCmYzF40M/X7zld4oJeerGN3f0ey0nkEGfa2KZxmyqF/3IIe/93q7caPMY+USGNs/LIY9VXR33N/WfS+ase+YgsSknPlM3Y9+755o2rv0b11X+WzlrbkiXzxxzIZ+Z6wrkmC9TzgIZ93GL9bvSxxd+/HdHphrLPuPA2vN8JlTHUkopD0MPJhfiD0Z/6QBeJnjY+YOVNj20p4eqHuR+zwNxeknAFi8tas+HfoKt1QtQkrlMKH492ImFFwHlq4e+ct+zSfzY0I/U5EuBoxynGjoZQ7KKSbHohVB+VvWjfYozyViIDz+wVRv69OKXuWasEzlXVm179fJ+90v+tNPmMRI3fas6PwUUo7eRE2tJNZ1kpva9e65p0/00r1xma2xTl0+Njcu5vb3xFchNe84WivUx12/qUyd8K1/PnU/3nf26n/whc2o9SimlnE4PJhcyPVj1cMwHHA832pGl3XV5IPLQ5NPtysb0YJQff+Dng9fBhuwL+T0FPcj5VHzEopdcbOol2v1xLd0J2SD+c/7GVddTzInXVbYc2rzesp31E3u5ATLyqzb8ZNsKxZDxEuPq5VX4+Gy17cXjObhftdOmGN2+Ys/6uQ2ufWxp455P3We8gtrv1X8ifcAU68o3Pl1u755rjzN96V41UE187mpepi6fLufI5974CuTkZ+qfUI3Qfaz1i0/tqeTPtY9l1tv9y5/qJ2RTexj+FG8i2S2ZUkopx+nB5EL8wTr1A308uPwBCf7S4X16wcgHptrlSy8CennIh76zegivQC7j3SJjIYZ8sZls5ssI/dg69cVGvwfAvdtHjv5sB2wRM/68XTa9VlObc6Rek8xWfMlqfFd5ODk+apsOtqt4VAPloHhSH/T/oHiskvcaUBP35/fy5zVH1+9hVZcjYC/HJGPaas949u65dn+ZIzlQP71gb41t6vI5xe0cnW/ESE19vkwoBo07esT6GOuXPvkF2TwK8pmj4sMefnVNbK4Lih070/oqpZRyOj2YXIg/nLKPh5kecKsHqz8YZWslD3pwTg/KJF888yGs+M5BMZJDtimPrEm+lHE9vYCd8mKje/y7bYHcqp6rPuLMWiknvQQmmZugTfUBxS224oMcw0nWa7BF5oTtfJnyeJTzlo0JxTPVSjbhAz/54r0ccaifa2/Dhuec/Wo756WQXDOfaeyFx654GF/P88g96F42kVHdiAuoNz8aefRgskK2xCSfMkBbyjnkccv1i7xywaevkz3QlT4+1L4ae5cB9FR/+vB/zhwspZTyZnowuRB/OPk9Dy+1lX140PtLhl5s1O919ZcHarx6mVD/1otNjpFelLJd/hXjU4KYVy+v4im+OPmLpcg6T+Ob44Ysbbo/StqZfCWKT/6mHJJ8aZZPdLmnb/oleJ/zyTn5PiTErdgfa/0+BYhPY6JxLaWUcj49mJRSSimllFJuTg8mpZRSSimllJvTg0kppZRSSinl5vRgUkoppZRSSrk5PZiUUkoppZRSbk4PJqWUUkoppZSb04NJKaWUUkop5eb0YFJKKaWUUkq5OT2YlFJKKaWUUm5ODyallFJKKaWUm9ODSSmllFJKKeXm9GBSSimllFJKuTk9mJRSSimllFJuTg8mpZRSSimllJvTg0kppZRSSinl5vRgUkoppZRSSrk5PZiUUkoppZRSbk4PJqWUUkoppZSb04NJKaWUUkop5eb0YFJKKaWUUkq5OT2YlFJKKaWUUm5ODyallFJKKaWUm9ODSSmllFJKKeXm9GBSSimllFJKuTk9mJRSSimllFJuTg8mpZRSSimllJvTg0kppZRSSinl5vRgUkoppZRSSrk5PZiUUkoppZRSbk4PJqWUUkoppZSb04NJKaWUUkop5eb0YFJKKaWUUkq5OT2YlFJKKaWUUm5ODyblEG97+3N3X33lW/dwPcmUh+XlL37tnmx/7h3vuvvmq9+5++CHPvoDfQKZV77x7bvnX/jAm9o/+anPvckm17S5DKz0IW1sgSyxYo/7I7ELZFbzby+GrfjhlBxuDfl/6StfH3PZqlGCrI/FY7KaZxPvfPd77vG2nEeJ2/eaANfq0/0txp7xI4fVnBTEf634zrW1Wj+5brzuztb6SxtbIHvu/gH4OSf/cjmnjPMKbBzd346iOaG94OhcKg9HDyZXgEn92ne/f4jVolotuK0N/VKIe+vhjs9XX/vefWxatB6jHgr0p+5RtClk+94mJt9TjVcoduU1yWzhuRPfngywyXn/qt4ZU8pxvZoH+Ei/yUo/68z1NJ5b/vfGShAfcbp97JLr1sNA+X3kxU8s89yLYYofu6rz0RxOJcf1FNBDf4qdeKda5FxQzSf7e/gcnGIQ9CHr47oFNpCfbE1gl3gy35yrPobe5zVRPbwv8xbKf1VD95V9XrsVR+sg/8Tq9+nT0dxxO9zTjp0jNry2q/H3moPX3dmaP2ljRY4daO6pNltMslxrrLjGPn7Uv6oTOh/7+Es/0C7Szrko5snHHsrryFgnHv85Mci35+LjfCSmnMOK48hYn4LiIib84ePIfCwPRw8mV2C1GSfITBuWFum04FiMqw39UvDHBrBa6MQ7PeAE7fQfyX1CGw355aa0QvVbbVLcTzVe1X4P5Yhv97VXG2BepAzXn/38l98kh62072DHayAkv+r3zdXnkWo36Tge+9Y8JH73tQJd/LqN1ThiT22yz73GEBsalxXoyZ7n7HWTzNEcHhqPSUy1X+0ZXiNvn0CWmmB/6ne2xh9WthRnjs0RprWzGnN8vPSZL7wxhl5Hr4nioW9Vw2SS8/mSY3a0ruSD3KqmzimyE8SC/l6uK3z8ZWsaB+ep7B+Ce80Db0MfO9yjl/POZVN/Arkj+VwKdTsSz4qjdV+xNaYTR/zR72vJoX2aZxMrGxMZF/Ukp3PrWi6nB5MrsLWYHGSmjYRFMD1w2eBOXfynoE192iyIkVi3Nj7Ffcom4Kzqob6tTWz1QFo9PLZ8TSh/xmFlb/UAA8W3VxvVMPNwcn4pNnTQ58d6Mj50vH6reZR1Tl8i9fGd89WZbGRMMI0jutSEb0i4Ryft55hkHg7tyBM/f8spf3ymXWca94eGWLN2q7FTDvR72xS36jzlmaRN6SsGzb9J15niQH9vvp+Cx+VzwOvoNVHs9AHX733fhzdjWuXrvrLPa6icU2YL5HO8FbO3HeEaNfc6ezvxqA7gdXdSn1imvMVkA9vuC7BLrT03dMlX+wdoDLMG3Od8R1/zxWWn3KY27rPtIVjV+ijoZj0nkJnGaA/0ND7ZN+0x8jXldHQOT/MBzslhWoPlcejB5AqsFlOCzJENzzdRFtr0QLgW+J4WYG4EiknxTwvdc5C++jJv30Bk221NuI3VBsR9+oJV7SeQlc+07zJbG5fy95pMHIlrNT/0o01TjOhAjgN43NhFzvXcl+rs+uA+92yA4shYcxz5dPvKlXtY1SpjENLnWyqtIw4n/rfrsNK/FtjPGgrlClPtVnsAueXvmqxqtLKR0I8c8txP48897SkLPl5qc8gt45vsCOzg02vC+EnfdX0MvY5eE8Xn8wFdHU7SF0w5rXwBcqoR96v8aEeOT29HTrF5+zkQu88RbJNLxrICvWd5/xDce9yC+2kMktWYEKv7mubKQ7CK5xSmOk+s5LZiyDFdtSWTL9UUuPa+JOeD2Mr1SFzlcenB5AowqXPjXZGLi0WdDy1f8Lpmsa0W1iXggw07bXOPT8U1bQ4r3WyfdFUzNhD1ux2ufbNAzvW1AWV9t3D9Ffg5Ikt804NOKL4tGeW9tynS77WRHi/XfPLioXFa6ZCXx6I8V2TcmodTLjlW6Vtt2MWvt6tOtCsm18Wf1gf95Ms1nx7vBDl8+Kd+5l4fXV9T8ik/mcO1wT4x+5zSOHocU+22ap+s8jhqw+vt7St9jQm5KJ+MX0x1h5VP72csyUs25MPr6rlPdTyCcpDNSUZ43Ft6q/xoJxc+vR25qdYgP9N8T7DtPqU7zY89GLNncf8A5Z0xAffog8cPXr+MEWTXY9rK81ywRewZ3xZTrs4U+wqNB7h9dMmVT6+fZLNeU1siX9km2xM+Tj4f0kbaFchSC2oy9ZfHpweTK7A16R1kcgFMur5QtNB4CWUzQN5lL0UblMcln+5rktOG6fFPckBO2iy5ZkPTpiYdt5N1yc1jtQGlnJhqP4G+b3QrsDdtkh6zP1Am38oBHfKVDdVJclkL1Uu5T7mlDvdudytP2vLhOrWJyZff40u5KWahGmCbftcD5LGn6yNj6CjP5194/xvxT3bwKz8PAfbTZ44jZO1gq/bJKg/VWeOwxTQvPAbinfSSaR5P44cMttOn4/8yl8YUea+X5551xIfW4h4ZI7YmuT2U/yo/2l+fm28eV681KO5pXLwW3j5BPZTb0Zw0N5F/FvcPUKzAN2PUQPbENC+Fj4HAz5QTvrZsnQP28aNa7917XFyTt8d+lNX4Cvcz9SfUjLHVeOZYQo49tolDY5g6U+6THHYzP81nZH3M5PNoXuX69GByZU6Z1FoQLCY+tSB9cfri16K79saHr3zo5MaBP/zmAkYvN5Js83Zs8mMUekBwL9u5cSTue7UBce9ygnim9gR97GJ/6hdZsy18U+Ra7cqBds8D2942bareLxnZVj01BvjhnnjRox3dtOdkbthYPYTwK195r1j07Y7HDKsaTNC/N4bITOO3FT8Qr+r3EGA/Y1dtPO+sJezFLnLcnaM26Eduqp/GKe0T85FxkS4+NBe3WM0H5ck+QkySw7bGMOu4yitBZy8XxY9vDrx8bumsfNP+uo03j8k0VpONHG/q4Dk7tFPTVT9ojLPutOPnWdw/5Je+yX/WMFE/9iWj+Nz3BHqrOXEKOfZ798p5qrWgHsQunSOQs3JjfFVT2VLfVEvX1RqdyLkgiHOam1MtFJvLpV3X82uN91aM5eHpweQCtAi04I6iSc+DFRssBhaSbPmGwWduMuhfc+EoDy1cbOemqgXr7annbZmzkKzs5QYikPMckXPfU10mOYG9qT1B/8iGjT3yTP9bkA81UBz4wFeOZbbz6TWeaqe606Z+6fDpP1OPPVjlOdXW2/CR4zqBfX6UCt9TzMoTWW9fcdSvI7uZE/lP8o7X/FKwlfNvqkmONUzjMbEl57Xew+cFtrSep/kuu1vj576nmmKTuOVzgr/IcN+Ky2uKberHddZx8kHMnivkOMmP1yfHcSWnek19e0jX7e/Fz+c0/tQCe8hO9RfoT2OJzrO6f+CP30maYhLKJ9sBefyiq9ohu1VHyHl0CcSAf9V6734rV1AtiXFP9lKwy9xTzVZ1FqvaEqfGOvF5iD/uM5+0S79q5jVAxu2V29CDyZXZWny+IRzt90XjstdEfoEfl2BhZowuwzVtxMSm47JqWz0ohOxJzjcK7lcblJCfaaNa4bGvIJ4jGxOx4f/UcXE91WBVa82jrEXWTiCDrPeTB9f+o0zI0jfVSGRuq3nIPbL42Kptxkys7i9zEbIvOfeDTtaOtmn8VvEL1W7quwbYzxplTWCa91PstL306ZffJDf5EHv5C/qR26offnzsVmgcyAldyNxg5dNBz8dHtfM2l8k6Tj6Uh9eMttU4ZX6Sw1f2+Rxc5Uc7cnx6O3LIe3vaUEy5brj3+KXHvk671yTBNvG4TdrQe1b3D7HyD+hOe4aQb9Uu59YEMpqLl0LMPvZ791u5gue7J0u777+nkHOAmu3VZFVb4sy5OYFujuW0VrwG6qcOxL3nozw8PZhckb3Fkxtcgh79yKltb+O4FvhmI9HvsqQ/xe7xadPyfCS3twFJzmuFHTYG/oZrL2f0cgNSe9YQsD21Jyu7CfamOu2hOktveoBpHqk9N+updo7342fvbwz37IFi0kMHWekRm5h0QbL6l8RUA9lN3/Qh4+1co4styci/y0zjt5U/YGNvzl4C9lW7xHPMsYaMnf7MUfXCXuqD6py+J47WDz8+HpD1R17/OEOOlUAG2+nTybpwTay+lmhbrZn0QczEBZ4DOtzzIq98NXd9nCRHX/pazcEE28gp/i0yfnwoV4c26uLxgHLIdgfbxON54vetsH9sxZ+ySdaOGutHy5SPQ79IW+dAfD72e/en5LqS5X5vbp6aI/Xbk6d/mgfEOY2zxsbrj4znNeWID/TQ1z268p1jXh6XHkyuhCby1sJbLS5gAdCHjLdPi2ri1E0iUWwsTl+wQvl5n3TSL/n5Igfi5yVAurKXtZDuFIODz0kG/amdWPZsAvrTOCTY85eihHbGze0oZ48DOex4rcjNbXPv/bKTtRMaF++nTfNINd6DGH7mZ3/+/jNzVQwae917nM4q5ilWwBft7hMZrx2gT5vqjMw0fp6/twviznmcTDEdBfsZ+0SONSh25ZZx0k87esgwdlnPvfwF/TlvIfX5ZE5oruAbcp6Irfmx8ilWvsmRWkzjNtVRYI96oY/MNC7uc5q7rpe+kJvmYILto/MJGdVI8av2E+l/q/5CdnPuqE/1oH/ymTBGT2X/8PhdTuQ8crsZ29bcEmkPMqajIK+xP3K/ylXj5rVayaZNcsnx3YJ6UTe3Sc2yJsmqtsSxmpsTHj86xKOfBlGMsiXbU9tRf+W69GByBVhITOq9Rcckzw1aC2BayOqfNg7nWotIm8+0MWhzzjjxqYXuet4OqSd7HrP8628xpZt5UQu9mHg70Ja+4MimCMhQS2o69QuNeeK6itP7p9pq/CYboLokU/5A+zTPVvOImOjT32xnf4J9/E/1XNVvGm9Q7lkX7tPOamwdZCb/3G+tI/ztzQ9k9vxfgmqUtdA8yjH1Po8d/VPG36EfuVPqpxg0LzN+WOUGK59TPzC+yle+c17Rv6qjz4/VnPJ2xa78hPrxlX3THEyIBzk+p34HHxpTYsPHVEuBvNdkq/5Ctc1aqm81/tik7ynvH1vxA+0+j7jX2Ezjf6SOU0yaM96+BzH4+ti7n3L1+aM2yRJr1pV7jxV95ZNjkf5TV6A/jbmQ3am26XMP1fpHfvTHlzYBe5qLyKhGmVN5XHowuQAm82qD1YL3zQx8gTD5fTOcmDaZ5FlcRNpo9NV81kZkHbWBrDY43xSRkx5MddbGtCd3S5Sz7nOTnnLIWk7zSPNPtVStV7UF7E4POCftwtaDBbmMf8oBXY2tt8vfSg88f/rdzxYeb47DNcixo/65jvE55a26rWqKLX552GtzKj/9s595Y/0RA7Hx6TIZm+rr7Rp/fpHZ1/MWmmfKX77T3zQuatOcxl7qgfcnqqti9zr7mKR/5LCZ45iQG3J8Tv2g+PCl/wQycz2CctjS3YqHOJ7l/WOKP0EePXxwrfHN2uV4g2KW72n8J70jYNuf70fuNY60HRkTxe14rT32HIv0T3vWbrIp3b26CXQlt4fmGPhPajjkk3PRfWzVrDwsPZi8BWCBdRGVLdjs9WBmrrDx6uGRstqcc9O+hHyYPTae/9S/x6X614RY9l42kOGBrP/749Zo/E99MXM95s5qzkK+uNxqrh2FuaQXyKkfyJXfZ1DOqofnucLXr9fR7XPvOqv6Puv7x9H163PomvPnkv0DHXSxMfULjcvW2JwLtjV3ciwUH7+LJP9be1Mpe/RgUkoppZRSSrk5PZiUUkoppZRSbk4PJqWUUkoppZSb04NJKaWUUkop5eb0YFJKKaWUUkq5OT2YlFJKKaWUUm5ODyallFJKKaWUm9ODSSmllFJKKeXm9GBSSimllFJKuTk9mJRSSimllFJuTg8mpZRSSimllJvTg0kppZRSSinl5vRgUp5JXv7i1+4++anP3T33jnfdffPV79xfT3JPFcX9wQ999E3tz7/wgft2Pr39KUFsn/38l8e+t739ubuvvvKtZ248SimllHJ7ejApzyR+MOFlmHteiLme5J8aq4PJNfLABmDjS1/5+tUPOcT+yje+vbRLTns50JcHGOwRb+qRS9bpmmzV6UguK4j7pc984V7/SPz4f/W17x2Sneon0GduMU7Zd000z7J9NbeTU/LdYm8+HkU1nXJaQeyvfff791yaxwQ5kVuOJb5OibOUUp4VejC5Ijwo9JCCc19o3mpQl6yFXgK8Xqf8LTs2jz6Y5WvrZU1jtzdmehFxOb1geS5A2+plaXp5W9kRR198VBvi+9jHXzpJ9yiM1ar++N07EGlMcswVu+6Jmzq9930fvr/fq9EWGo/pRZY4prHHf7YT35G5KjnlujcGyu3IWCFLXTwHIX+r8UHHD4D4m+qVeFxbh4GpZolinPysWK2nrVhOBRtbY5Bxb+0pKxgXzwtW9SKe6WBCOzrSY56lzeTInC2llFvTg8kV0MMsHy60T38D/MMGD2KvjeqVL078eBB9PIR54E8P1z2mlxd/8Vo9nIkFn6uXPaGXiimftC2/k6ziEcjKdtrh/pQXIOS9trLtMpeiMfrIi5+4zy/zmfA68Ml95opdvWTC9FJ2CuS95UNtiidfSLn3uEG5Y1fXU74TaZ/4NDaaG8is4hE+xqs5lagOxMy+5HNKeUz+0PMa4HeyL91Vv+KdbJ7C0XxhVb9VjFt4vQDbU9ukC6o/vnUNW7XYWgN7c8RJn6WU8lTpweRC9JDspr+Gh6I/eKlVPtBPBRv+orMFcowRPlcvAIqRF7aVXb0kIOd2tuaAXh7SZr4IyvbzL7z/TS/N2MS27rdefPa4tOYJsU05b6G8MzZ+5GnvZfPoeDvoZIzEkAcTWL1oTnPGx8vH0Zl8O9hAV3HwSQ18TkzzKuPnk/utsZ1ioc1rih2PRzJZk7SlOU7c6E5/GeO+0J3Gd4utOk7j5jFN95nDOUx+aZvmi/tL31yjQ92m3B3sSz59bHGNfEsp5THoweRC2PBPeUjw4M4XMD0sBTZ54NHustzrAas2ZKWnPuBvsiWDDfzyAMWu2qcH1SXxrR58WSPpb71IZZ5CdvDlua9QzsgrXn/xEoqRuq1iQ0Z+PR/VbJU/fond65ht2NS1j8Eq3i2Iw+O7JcROPTMHHxdvF9RiKwf0NCcSr7PGzHXxPR1M8MXLobfvxaE88mCFDrZW+QGxge7xiw2PX20uh03uiUl+zjmYTMgfNvmcck9bikPfnnn8Ah3A/t6BLtmKXfVPO4pJ7TnmblOy6UOxel1VH59vPuaqwVbNMh+uJx2YYnB5xb6KRza3alhKKU+JHkwuQA/Foxs+D0keGP4QVZvb4CHiD5Z8+EhfD0npuhw2aFOMtCGrB/NWLFPbVny00Z+6Lj/JKsYJ5ZKxyI5fq8/zE/hSu2ox+VWMyPDp+QLterHJfHIckmmeYIMaTHUgF/Whh77375G1uSbKldjkA6aaAW1TLMpxVbO9HCa7igNdtVHb9OFj6e0T6Ob4OBpb9ynQle+MF9/oeQyqbdpSO3F47KoRv3+jMdmCGNDRfdZPflLHY4GsqequX/TnUJNzNnVUN/e1xRQHbfRNtVdM0kPG1xLx8KOjp8SQ9cKG25SflJOsYuF6sv3Od7/nB+Yl10cOJlmDjCPrX0opT5UeTC5AD/LpwZjoQcwDIvvyAcc9dv0BhQ8eYK6vh1I+pPJhqQe4P5gynkvj29P3h6Ta9FCe6qdcvM8ftvnAxl76lg1vpwZZH/AY/cHverLjstxrHnh9nYxDtVLu6OmTNq8tOrS5P7VNILf1rc+18LHgXjlNdfExFJ4D16qR55K4nWmMZMPlsJ3jQqyXHkzkn5dJ8p5ylK7iUhx5L6Z6cY0shw/8/MzP/vy9DPXQPIF8ed3D7coe915PIEbVX/6ypll3+tJW6mi+THVLUlcxedsEthV7yrvNrfFY1VXxg/errllH9zflIx36QH1TDC6v2LOOGUf6LKWUp0oPJhfAQyNfJFboITnJ0qaHPvc8RPKBt/KFbD6k/IEEaR8kq4fgpfGlPcdj9HblhN9VfB4P17KDb71cAvG4PkztXO/VEdvoSSZjyXxkc/Xgl75qgxz2PQ76sqYO/VkjwJbsiinva+NjoTbliW9e2D1nR2OHnOLP2k32HeRX/lVTmGz73PH2RPZSH7ALssULPrJ6CeaabxCQyfHA3jTW9Puc0P3knza1I0cM7n+CftVrq75THR1ymuxn3YHrqY7kTg0mOxNTDZKj4wrEJpuKb/I7jROgSz/jg65kVnV1f34NXEtHYyl7eZ/yW7F7HOmzlFKeKj2YXMDWi0PCA2t6sVQfDxI92HmI5ANRvvzhL9l8SPkDCSbfkkV/JSOOxLfyLfmpXSg39yF7esgK2VG/fqZ7GgPaUl9kPBkj914bzzdlFf9qHqCHPv1c86Ihm8r3XLCpOIV8TGN5LYg7ayiIhxrnHBHEzI/7aNyQQcdtbdkH9LKfa9q8pthFVvdwtD4rOdo1dpLRwYQ2xa65qQMKulOMQvOIvq05JfvKHVlikF3u9eNUfHKf9XIbiinXSKJYsqZTTp6L+le5IId89p3K0XGFaV4cRflgQ7VRDl5X13F/6Ztr1/F+bJITuU3yisVrDxnHJfmWUspj0oPJBeih4A+AFTwoeIDlA0R9/nDmIZIvdfTpQa82yeZDKuNJ+yBZ9CVzSXwr35Kf2h1sYVPxyJ7Hw7XbQZaYJ9uyNz2MMx/IGOlDn0/63M4ki73Vg9/9AT/brviUn/LVi06S9Rb4VM2EbD3ki0iOhcg8MgZy8Bf5rZpN9gV62S/fqink2IFiYCy87aVPv/wmuckHoKeXRV3rGyJ8K3b9mFTOtT3Qp3aeh8j6Ytt/twMdfJ1yMFn5mPxD1nQljwyyW/3KYw+f41xPMnvIhsdzxFaOn2rnPzKp+l7jl98VF9eaX/iY5Fe1VYyymT5LKeWp0oPJhfAA4OGVD4aEBwsPMT1wHNryIZIvojygeECmH9fVQ8ptATr5cJWs4rk0vpXv9LPiqJzDg9bzkg3ap5zFlGvmKFu82CHrdlJWYzM9+Fd1VbvG02N3OcB+vpwI5Kea0Ta1Xwvi9hqA6qC5gQxrw+NAhoOZ56trfxmc8PFEb5IB1RTwnTUlNj+Y0K+YJaNcsJf63Csn1QFdPrlXm37/5Og4qA6rebtC8UDWwsG2xksx+vgJxeF1dLKme/LZr3tioj7kO+lSU/pXcSY5ritSTn4yBs0Bz9VlgWva1E/bFK/XLOvH9SpHYujBpJTyw0QPJleADZ+HbG78PFR4sdXDQXL+EOE623iI5ANPD8l8ACGbDyl/IAE6+bIjWfTVdkl8p/ieHpKTH5Bd+oT0dS9bxKMXDq+L2xOZwySvmOhT2ySrsVnllPqAX73gcK880wZgP19OBPLYly/Vg3vPz2vDPTrIbtVoC+xLV7lMuSqu9LOVL7j9qR+9I7ETT/pQLVSjjFn5qI7Ezyd9GTe6oHZklS9/e841suqXHcd1M9YjKEc+sc8Yn/KNiXI8ArLyJ/9buYHqqdhYK9hwGe6xjx2+AeLa5+8K4lAsGld8KKb0A8Qx2UaW2OTf6yWwzcGa68kObZOe10y5OpMO4C/Xvo+l8kx7adP96z5lSinlKdCDyZXgwcFDavVgEDy4XCZf2oGHRj7w9EBHP2XzIZV+0Uk/kkVfbZI9Jz73/SM/+uP3nyt90INRuD2v5cq/2oFrHrpc8xD/8E/9zBttrucoT9XT6ygZxbFVc+4Vg+cDWSMnbat+U8zKy22lT2JynRxft4FPxU//Vp0m5Bv0I1lej0meXPlU21a+4DFO/UdY+fD4PSbv83qiL1lQLtQyX4Q1nm6H9umfgkVW43fqGLiuYsMX7VwfPZjwEq6YReaS4Ee+nZU87VOthdbCZHNVF8WIHnOQthwP7tHHjsZTemlXcsRJP59bMQN54R8/3ubxO/JJLO6fa3xqbJzJh8srn1XthftEVvoZSyml3JoeTMozBQ/SfIjz8sBLhD/8nzp6GdMLhV4w8mVG6OVEuWYNJvSSRM28bpe8mMg/erKvHE5B+a58e4xT/wrFlHVzGXxOtslplQ990wsi7S4HqhH9ypMDAC/NOjTjZ9Ldw+vPvcfAJ7Ejs3cw4Z4YsEW/7INiXo0rftDXfcrnGIDLZ/80RgJfLqv8iDvHEBt5+APFBx/4yRfvZfQ7QbLr8aWeZDJOYpnaMi7Imm2ROace95OPFcpDdjzGU+IqpZTHoAeTUm4ALzO81PCSwH2+PDi8aPEytXp52wL7esFJX7Sd8oIDxOC/JK6XRPnYwl+Ct/KF1QveQ6Cx4CVt6gdkeMnnhZZ74kI+x0R5qdagGm3ZPwd840sxYN/9go+/ar1X+ymHp8IUO3krR/qQcZ23GuS+l2euSz9AqYY/LPUqpTxb9GBSSimllFJKuTk9mJRSSimllFJuTg8mpZRSSimllJvTg0kppZRSSinl5vRgUkoppZRSSrk5PZiUUkoppZRSbk4PJqWUUkoppZSb04NJKaWUUkop5eb0YFJKKaWUUkq5OT2YlFJKKaWUUm5ODyallFJKKaWUm9ODSSmllFJKKeXm9GBSSimllFJKuTk9mJRSSimllFJuTg8mpZRSSimllJvTg0kppZRSSinl5vRgUkoppZRSSrk5PZiUUkoppZRSbk4PJqWUUkoppZSb04NJKaWUUkop5eb0YFJKKaWUUkq5OT2YlFJKKaWUUm5ODyallFJKKaWUm9ODSSmllFJKKeXm9GBSSimllFJKuTk9mJRSSimllFJuTg8mpZRSSimllJvTg0kppZRSSinl5vRgUkoppZRSSrk5PZiUUkoppZRSbk4PJqWUUkoppZSb04NJKaWUUkop5eb0YFJKKaU8Ah/80Efvvvnqd+6ee8e7xv7ybMA4fvWVb9297e3P3b38xa+9cT3JllJOoweTK/D8Cx+4e+Ub3z7rYcOm9slPfe4H2tnk2OzYALNvD+L50le+3o3y96HGT+1l4GhMWy8y2IBsd5hb00MTe9g9Z34dAfvEdmQOEuNWHvS/9t3vn/Xw9xeIqf9arHLAL/73xukI2Jj2ircyq711b84kGodXX/vevc3sZ54wx1b9cI01ozhOmZPkuTW3tuK55NkksEHeq7qcAzFrXzt1LC8FX6s99SjaV7AB3G/NHaG97JI5dGr8DzF+exyZm6rh0XXw0ByJ5xrjV/bpweQKsOB98+eeTYoJPOGbCpvM9LJxZGGvkO5k19EiO4drPEiwsdrMtzaAUzfmU+Ufg6MxITeNI3rMua2Hzd48oH0VA7ocbmUfGWRzHiTEKxtc+/0K4kg5jT/4w4L54P6SzDUfNnv6LnsKUw5qn/xskTkI7K/6HgL8TfFtofW6V+cVuR9wnS/W2D6ydrL2ik3rwvuOztNz54dDTsS/tXaF1p1id13lob6JrN+R+ZhzjNocqc8peFzvfPd77u0fGdNL8Xl5yVo6Ogcd1X5rvPY4J/6HGL89mJvEynrWmqFW/syif7WekNl6h0qypl6nFVm/rXjgGuNXjtGDyRXIzT/vt2TZMKYN5shDZwv8nPutCfE85kMic1Tu0+ZBTMR2ykb7WA+9U9iLSbVJlPeq3236XPOabqGNGT728Zfu23x88D/VHl/45lNtGqsc34Qxnmyqzx8W2PJ7Bxs5X1J+S9/7sJO1gbQvphymmhyFGIhliiFZ1e6hmOp8BNdTfntzw+cw98hPNRA+ttOYwBHf6E72j/C5X/j/3o/71HcEjznnq+d0JI+s30T6cNA/+oK4sjExxUXbVpyXolyoIddba5MaTzkeQXPcOTKf8lCenBK/kM7kLzll/I6iOUrMjC1jrpintTzFkHoONqjD1rxhLKd9IPu21sE1xq8cpweTC1hN1pc+84Xlw4CJ630sCuyknBZ0PnRo97/JRn+KYcWRxUM8e4v9GmAfP7lpEB/t5JkbBX3anF1nC+w/Rj6nsBfTtEmSM3o5B1zHbSKrOq3mkzP5TJuy4/VHhrk12VbMkjmC20HfY6IvYxSeL9dpl3nD2lzpb9lW3lOOoDx1r3maMWyx8g1aK+k//eb9ueBninGPnH+TzBb49VpTR+2X5Ib9977vw8t4vT6rWuyN5QR2tsZnxZ4v9W/FSR5+nzVztL+vaj/FQduU21ZsCTIph90phj2U7zXR+vEYNZ80X0/B5+XU7+Bzqq8gDvLemo/nxH/p+F0b4vQDxmreJciTp/SE8tuaL/TJxyTvea/ioX8rziPjV06jB5MrwIT0DWJr08o+Jv20sLSIfLKjgx/0+frb5ffALw+tI5sP8WxteNeEeNKXNpOPvPiJsU8PX7VRI3+wZY7y8fwL77//lFxuNrLDJzqSS3+geq5sgcZwksm8NbbI4R/SJrmjp0+1C3Rk0+cZ8lwDMqknJp8Tyks2p/qcQuaTdfP6MSey3cFW2vactnL0PvL57Oe//EYfdSRX2n1uTHzpF3/l3g72kJ3GKtmr/cpO1o7rrME5bMWz8uFzTnKr2LCrGk33qjff2ulT8WBHcw455ryvJYGvHBtsIOe+9kAO3aPyyapeoPgn2/IrXe5VA+6zZhM5JhNpV+D36NrOsYaVXTgS17XAF3lkfECO09xRn88dUD2OxO9+uc6fYFD/qkbC7WTfXvyKN/uSafwuAVv49zZipGaKZ2t+OMo/5zn3q9xX/RmD553xeN25Pnf8yun0YHIFcnPQhM1NTbgskz770eVvBZnwWoyymYv9CNjArhbgHtrQiPOhF920eRIn7dSIGFQD9XlMyk0y0vFcVeNpjFxOttwefvDnunyipxgmn5N92vS3vbTLpnx4HfCftacmbI5CMQrXwb5qyEas+aT8ViDzYz/x3vvYuM+xUayp43G6TOZETJITtHmdhOy4/akuQjlnW+p77Ilk5Vv2yGHrRWSVA22Tn4kpL/zmPHLwKz3Nw5wX56A6M2/wrxiVpz49dmS9RvR73NLjWvVVrHkvVnXHDn59XSaK0e/xgfzka0L1V55buC8HP6s4V33caw0Sd85HWNXM2Zu3gD52sOdtmV/ifnOsZSPtCuIhLuLLvmuiPFQ31SznRe5zanc5jznj13jJj+6zRvjmLxXpm3wm58YvvS0yNrd5CcRILOTo4581w/9qfjjIk1/KEq/n4/Gr/t7vyJbn7fFca/zKefRgciGawExSLTrgmr6Uzz4muzYdh8XBImBhTBvPUdBlIU4+VsifXmYfcgFiF/uKzzcE1UAbh/pSVv2Cftq9xlMO+PB27qdapd8J96m4getJnpgkP8VHLKmPD+WKLPqTzo/86I/ff2oTRs/nk+T3IDbmqh9qpjpyT7v7c33J6xuw1Pe8HNU963AUxYUNrbmpriL75J927+M6413lQNvUnqRvxb6Xu2JU7ffkrwH5aIy3QE5xHYU6uA3q8PocevO3ne7fx8l1c0y4pz7I8+l+Hel4bffyRcd9OYwH/tLGqh1kD+hXzHxKRvqZt5P1m2LMuedxKQaXn/xOcvRnbVVL8vC9YasW50I8uV/JT8aq9eb+lb/uPeasAZ/U18cnkY+MacW58XstkUvZjB0muUuRH7559rW7h8cF3JObzxeHmmP/6Nzx/D1v7mmnP3Xg1PEr59ODyYUwmVkUwM+vM2n14wfTJsWE9j4WxbSgtHhYqEcXnCP9cxYR/nyT5f7cOPZQnL45pG9tFtoYkJHs1kamvLHtNsVRexljQjt68okf/G3VSzGxaa9yoD3xGJBZ1Yp7YtHXz57DZFd43bC7ehgA/lY1gUl/0lnZUQ3IkTywRw4Zs+PxYxf/qjOf/iNBk7/s83HAHm2qpe5hlcNevZ1VXAk23fdDQi2pqWJUnvrcip1+0D06qxxVU+rt7fhf7aWCPsY2dXNM5F/zSPKTvtoyzy3cV4Jt7Hkeq3pwjy1k+UTO+11uqpnwsUvfDvpTHID/zCv96j7l0q7rpQ1yVIyqfdb3KPpRyozHY5j6gHbFrLFXH3H5fkYfMrI5jZPnIru0I0vbqTGeEr/uU1Y29sbvoaEGHusKyfF+NcVIHlvzG7Ax6Xp9cr7COeNXLqcHkwtgkvLC5AcRJjdtq4dpPmiZ2EzylNNmoc3jFNDJhXQKxJMLXQv0XJtbuD+u3Qe56GUz41KeK1Q7apz5gB7cqr/sSU9oLBSXP/Aljw3Fqf604xCT9KfNDd2sNT5cVnGpzWtHrv4QdVngnnlKP3rANXWSTtpARjGv8JhTX2348NpkXqB40aeW6KTMZN/70PeDiPx4jM5Uc0BHY6s2rr1WUw5COSMz9Z8Kfq5l67GYxn0PzQH00J9kYGWbGk3zU3ND8qkvv7o/Um9kVuMv6Nf8wnbOqQn5Rj5zWaEXc+XEGtmqHzKKK/vwP/kA1Uf1yhql3VVdqcHefnktFMPeWME0f3zM6FcOWT/p5tzVXEu7Iu0kp8QPl4zfNcC/x4pP3WfdVE/JCtlQnD5PVrFrTk15C8Uin9wrnocav3KMHkwuQAuJReCb/96i8MmOfi4qmBahQGdaANLBx2TzKOjmggTZ10K+FuRIvfQjQx67NoLcRFxPD4oV6Ez5aJxUYz6pne6F561r8PoTs2KR3a0xUEy8OOPT8wJimHykHL4097yfa8034BsD5PS3Ttg99WCSTPE4K31yc73JDjroEjd14Od6+fQx3IoPe9jNOmqMV2TNZYs+7Hk792qbcgBiYy6knwmfo3txrpjm+amQP3WY7B/hc1f653KpKffYoh5H6yh9zQHlxbXmks8b6iUfknXSzgQy8rvC66q9YpJztnzL3ipu0DramhPoT/MejuSlOZ5xELfrZp3p5x7dPR/XQjU74m+K3+cNeZw6litZ2coaJqfED8jtya7G71Jyfmb9qK/mHW3TPM05wyf3ktMcSr0kx1J4fbC9WgeA3KXjV47Rg8kF8NLEJM1FtVpkUx+TnUWTcrmoHV9MAhssjK2FdZSji/1a4Ad/vCjzmQufXMmLPq+V9Kb6OasNJfPU5pL20NPGLZ9Zf/ehsdvb5OQbf+kXX6lPf/p1tvo173QQWuF1IjZ0sm5iL549fYGNtMM99sHrwP0Ut0APWT7xn3Wc6iqmPtqoiX5M85RaKFb0pjkjaN+ynSCP7anvoaEevmaOkGPokMtkDx1q4t9G047/rCN92KDP21d1os5uc6UvsJPzbCLjmtCcgCNjuMoBqCd1XcUNmesE+lvjM+XleXjuHm/GTizUWfOcT8bYfSO/iuUaqGZTTqei+D3HjF/+qBF1pt/lgViOrv9T40dukiWGvfG7FB9vxe22uaZN/8DGNI9py/3hiF6CzlQHr8+0Dq49fuUYPZhcASakb/55vyWbGwHXLET9DXEuulzg9GtzObJAj6AYth5miS/wc0CXHCa/xEPftPjV57lz7bHItm86qpvq6G3uh1iIyXWx53FO8cmWx0Efm+lkQzEqDz7dJ+DH7SX0rfplj19ARwa7p3xjojoQ4x6KwfU9FkBG8jmuxMZBgE/iyjqILfsi6zjVdSWLXWKjnXtiXun62NCPnI8vYEf58sLNJ/eyv4I4GCv5xQ/+uOYz/TiKRfKnoHiPkuOYNrx/VSPwcQXfL4H8VWvJY8friH3Nb7WJnFOTvuP1XpExJaqDZIiLekw1c7Z8q4aruGGqX4K+18PZy8vxeHwM0dcccFtqzza/vzaK8RQf1F/xg+aK1q/XDrsaL+n5+PhcA/pPieXU+JE7Kuvjl217838CHdUGm1McqoH7FFu+sXVK7bCxJ0sMipf7hxi/coweTK5Abv5bD4Ps0wITWoTTJgG+MLDFNZ9aJHsPuiMQA3an+Cc8pqn/CFuLnHzIyzcNRxuISBvcE19+W6BaC8WAHPKSS7/KV/3Yx1bWXnFPdhST15g22VMsCX2SdxST55Rx0oddbBDH0YMJ9eDbQdkV6KziAeXjMZ0KuqtxV3xe84R8XT/vV7IaO499yx+5btUCVI9kFQ/gHxnGQDLYUVz8BYZizfkE9PmYnkLWCp/KkTb6kOH+yFgg4/NxK2+BPd8vAR0/dMiuYlnprWSnNsfrvWKSUY22csWn6jH52PKdYzCxqoOD/VV89GnM98CX5tqWTdVbNdc6O5LPpcjHXk70r8ZFY+YxA3kdiV/65L81LhNH4xfnjt9W21Hwu/KtPPKZ6RB71khzBz32gC19B1saT5HjxD0xEZu3J5eMXzlGDyZXgIXhmz/3LJhcCEITWotstXinxQRaPPpRsiM6ydZmNW0IW2T+zyracHLDugXTJsm4aNw0d3xMJa9NX2Po44NdbCCzdzDhU/OYfsUhPJ6E9tdtvf7PlB7Z8CfwIV2uPd8VHlPWUWO8Aln9c8tTziLrnw/IaXxW8ypj0vgQw/TgpX81Himf+Z9C6mJftVV8yol8mWMZq/C5RF30jbDnvNLb21tUa6+vx+rQlvWY9J2p3spf8XvdfexXNhO3574m3yLHwEFHsWUdMnZYxem5HAG/2F99W6V54Dm5Dz65d51rotynuXEE6pRrzOvJJ/euA1vjcQqnxn/O+Lk++a5y2kJ+c15xv/LlSE76XmPXU3uOidcbVvNK81Fyq5jc3iXjV47Rg8kVYHLnwWT1MN3qeyqwCE95QCD/VlisuRm+VWBslBOfOVaMsx5e/hBiXLceSqtxR/6lT7/8pgcFctrY98Cu9PZi2IN8XT/vt2RvSeZNbKpPPoS3oO5ez1PIevh400aff7voe4bHC3t11fzIWFf7pfxP9vmcXoy5J8Zs1/wnZm8vbz00b6Z965r4njrN63N5rPjFufsHa8n3Ke0HvkesUI7yy+deDaVzrVo/1PiVY/RgUsrvo82zLyillFJKKY9PDyal/D49mJRSSiml3I4eTEoppZRSSik3pweTUkoppZRSys3pwaSUUkoppZRyc3owKaWUUkoppdycHkxKKaWUUkopN6cHk1JKKaWUUsrN6cGklFJKKaWUcnN6MCmllFJKKaXcnB5MSimllFJKKTenB5NSSimllFLKzenBpJRSSvkh5W1vf+7uq6986+6DH/ro2P/JT33u7uUvfm3sK5fx2c9/+e75Fz4w9jEe33z1O3fPveNdY38pb1V6MHkg2Mxffe17y01nD/Re+ca3n4lN6dJYL92A0efBygN26gc9fF/77vd/QHZ68BILOWn8tnJcPbjTxhboY8fbjuQl0J1ksXHJPDwVzwOfjOue77fC+DnIf+krXz80bsgge6oPB91VnVfzIiF/xmHqU+1X/XsQA+MmND8eEvLB19GY98Zsqz5Pbf6dCn4Y3yk2ILbVmK3mhtqPjjU5HtkrHoKtsSGvh9w/V2MPp667KY8t+1ts1eQhIEdyXa2/8sNFDyYPAIuazYwH45FNYdqAjmwMbDr+wMfnS5/5wpvaxDmb01Eu2VSUe8bnNUzSV/qnZjzkUm/1kJw2b2z4S8HWeKw2/7SxQvHmA2jVLnL8Hfqk7+0P+ZAlTvx5jajL3tx71scv0Zxexesg+7GPv3SfH3VY5e5kjVfxK47V/BHIIcPcmOzQlmtOoDfF6BypwzXBH7lQp1XcCfXkYDLJYw9b733fh9/U7v1Paf6dCvZXh7K9GNCZ5hg5TXNhylPyXnvZpX3lYzX3eAYiP/WB25HtKa6tvmuxV19iPep/mmM5t6axnuo72UpyjC95/8A3MXhcgP9pP1Ssq3m2BTrokuPqHWMPr1W5Pj2YXBktJBairvcm8WpjWC2ayR7y+OIT35Lhc9qotTivQW5+3u4+hW9AxOd95LC1sSKfG1i2oX/KA919rGJOPKZV/kfjIP7M2/sm2wkxZA2wSbvLHLF1DvJHvN6ueZztzrM+fhPobP0NfJI1WIFdvTCotpmb7Kz6aZtykryPFbVZzc0J/OL/SC4PAbF7fozr0Tmv2MlZbWlv4inOv1MgR4+NfFcvmKB6ELO3a55gL/PZqqPqjky2aSzQQ3+q06Q/gRxr0mPYGi9qP7XDFMe5EAPxf+TFT4y+JpQrufh+oGu3rVhVQ/4ihFpIZqqfZLd8O8gz/nziTzJ8rt4/Vj6Qfee733OfC/q+Bo6uCc/7FFKPa9pcpjw8PZhcES1w0MJnYa02ZLHaGHKTSVzP5VlMvtB9YU2+zgE/bETuR+gBhV+vBXgbMVMbxTJtArT5RoGs9JGdfD//wvsPbV4CO+4DcgPcGg/XV30zLqHauL7ynvJZkfGi67WWTfV73dR2LZRzxiTwPa2BKd9nbfzQm+RWeB2wg71T1qLnMeXk40xsaRud12v8egzTGOzh88pZjTOoTqfkeirEtVpfGl+HOIk389sjfdxy/l2Cxn41ZpKZaicUr8YVO3kgp28rbvo1Z9Umu/hXG/rYyTk01XZq4xqbasMO+eMjY3BfW2N3DTKuU/DYuPb5zLhp/MhjNc45hnAkZ9dzefwpBtV30nFb3Kv+kkEPe9hV3MqH68z3KF4H7E0yW3g+5WHoweRKsIDYyLS4vG9rU4BpsfpCd1nHF63LayNChk/9jQXXMMV4LrlxeBws4PTlbbmBCdUKG/kg8o1pssl9xrRi8i/bW3lJH7+pvxXHZIPr6WELtG3NG+lmDIDuXn0nm6dCruSc45yoVlOez/L4HQVd6q74ADs+9nxmPEIyHsMUD3LkwN++TmOCDj759PYkx2QL5THF7Uxjfw2IkVi9tsmRfJCZbKzaacscJUdN9ubOY86/FdjkIMF8YQzTNvlsjZtqjwy6R+aB13Jr7Gib2pNpfJSXj7fWBm0et/fLDp/YnfpuBf6nPDUnpvmhOebzKus11eLIXKNP89PlsS1bfB55/1A735T4nug+/Jq+rRinOQFpA7mt2nBN2+q+PAw9mFwBJnm+dHDtE56FxgahBQdMcN+wTwFdFhk++PQFj+9JVg8Nj+FSsOUPNI8Dv14DyDbugRryIMGOvm4nD/DY86UaO9ijT3GAbz5bSF9j5/ZWSFYQf7ZBxsFnbqToYjPHxHNGxvtSBl1kiNs3dmJK3VNqs4dqBRrPLYgp6/esj98RprwBOxoryWUtlY9kPIYpHtlgDeEvx/9oDppPHsuEciA/l0df9VbsDwF+2BPIV/5WIIPsKp7VPFi1g8ZH/bqf/Iu0tbJPba8x/7bAN1ATX38a0xUaa+WrmmbMmo8+LzxX+rE35U8bcTBm6R87yKQ/kX4hfR8Zq4kp1nPAjmyqfnxqHFxWYyI54XNimh+ZM3AP9Hlep4Aufqgfn15vz8tlNaeUQ8pN8K+WaXwVt/JQvnzD7vNVuelT7cjkt/H0b81P2Vjdl4ehB5ML0cTPDYMJnBujFqdP/EvwjSg3Bv2NqRYlcfKzpby40u9xXUIuZL/nOmuQbdwDufjBRC9W0luBHg8ubKKDLd8EVygG6csXbfRhJ30B7RnX1AY+PtO9xznNH0jb3Ct26aOr9ulgopxoQ8c35ktQjFPfCsWiHJ7l8TsCtol3isfHj3s+lZdklI9kPIYpHreR9lNfbRPEm7EcQfkyJvii7Zy6HeGc+QcrvdU8WLUDuT3l+bcFsbLmsMscYa647Wk+JsqX+PnU7wZgk/604blKF3nakPU1Lnz+Jui5rHLImsrXli0H3dUYXpMpLvxm3sTjdRQ+J7gmf0Afeb6tmOpwjdzcN7EqPvyd8/4x5YhtfPAPT9CX/Sty/Feo1qdwjdqVbXowuYBpIR3pY2LnQyDxhT71AzLTwgG9GCDjX6WiRzt/E5H2ToXYsOsLlbx1z2fmkG3cr2LXRsun23VoY+PCJpsX8uRJG3qSW9VT+vhFl40TuYzJyQ0PG9kG+NfGPd2jhy/FLD21E6t0FBe1QZY+7EhXOo95MAHZnuqUKCfXJz7ioe9ZG78tVBd/QU98/Ljnc4oXJOMxcI39lPU6IYMPxYAd7tHf8rcHNcOe4J72aYxAvpTHU2Q1D1bt6nuK8+8I2ONgwnj5vFA/MRGb6yTIeE7oE6PPN58TnquuV/lPMWU/viXj9cGm1zzZm4eKa+q7JtonMh7lRgxcr/YR2nwPSLnsh9UadfC5J6cYJxQHMnvvH4wXYzjNAZ9PqlXKSV++fU75PJjmEv2eJzFuzbnHmhc/7PRg8kAwgY9sAAI5/e0V96uNAbta4Al9MPWBFvBK/1SIFXuK2TcR7nPRT23cAzrkjw3VgVy0qSTkgCy2+JsY2cQWG6HHBVM9pc8miS/kuScH7EjOoT1rrDZsoz/Fm9zH+emX/5PP17+G1pjQTr9idZvpV+PpdgX2kMeebKhmPkbXxP1kH7FM8SP/rI6f23CIFZmMN9H4qV5TjopJMuRIfuj6teQnG+SmNvrx6ToJdnmx2IsfJJv12SLrfymMxeRnQnVUXSeZI5DDU51/R1nVjfmxdcDS/CFm/c246kq77y85Hz1/9j/kp5oANnIfcNABxYNcroeEPuR/+mc/c/855XcEz+kSNOaqn0M+WlvTeGv8Jt1TIY5bvH+s5iAgh47Pp8nGtdBYTLUuj0sPJg8EC/To5qUFoRdz2nJjkMyWTXxqk58WujZwHjqT/jlo88Rvxkxbxptt3AN2/GDCyyrxakNSbrIjXdrTLzpHXtjkW3Zoox+5qX5Csm4n24A25Lc2Ud9okefaX9SRoU9jN+mqVuhM35ggp83dr93WNdiyTSxZI9Utx+ZZGj/HfWNzknE0frI/5SibkvHaHK2Tj8vUn6geIL+nMsWmdnLm09svgXj3cso6TpDvNG6r+UG7UL/8+HxL0tbKPm3InzsGp4APxiXHy6EPGY/V6wqZ6wofr1X+sk1/9gmPezXnnHPm3xG757I1L72ee2NzCYrhsd8/JKdvV2THa4K89q6jfo7wpV/8lXsfU98RtupQLqcHkweCRXNk8rLg9GLv7b4xsDjzgQC+MOlHPu1okXssWtgudwmKjzjcLtdZg2ybNpfcqCSXMetv3HITzftV297f2MGkl6Cv2CWLHjXhGxHa8DPp+tgqhvTJJ/eZv5D/jFM18wcr5EZ/LfCVMQjPT7wVxk+sxmALbOIDX9xPsXJNm2R8LP1a8nv57vVj8/W8Xz/EIruXO6TsXpzXZGveiazjKf2r+fWU5t+l4E8xAN+E+N+gqz6Zy1bd1EceW/Fv1Y/29OmoTj7P+Isaz0XwXMm/8DrCQ87fVf3Im5ipjWSm56LLHgF7rou9W75/yLbHKIiBfmrveaObsTjInjrGPo+yD3+r2peHoQeTB4KF44txQosyNyWhRa1FOsk4vuCRR48fi+EBAyxw2nLzkO7WYt/C4/Sc8ZM1yDZ8EiuLXn9jwydxY2+F20A/bWYuKeMQE/L0ITP5S+RD124PX76Rcb/a9KY5MMUquRw7yapekx906EtdIHb3fS7kSs6TLdV18g+Zr2q7JePccvzok02us3+LHHu3lUiGmPSS5NeyidyqTkCtVv0aQx8n7K1yF9JjDkrOYwPNT+UhqH22ncpWTkJzY+VrK0/Nr2wXt5x/6J5bP/kX7oNc+BE1j3WKYVVXtaNHHuzptLmM2KovuvhVLcDH22vjc85tOG4PXc//FDJf1cjbjpD1Izfs+/i73OT7XKgTtVjZO9Un+RM/18ijt/f+QQy0T7liI/vVJxu0UyvsHiVzSRveT045FuXh6cHkgWBCs4BYSFP/FtowWCSnbHbIshHgV3r4Z1PQv2rhm4LY26D28Fy51oNCm2wiWd90gDhp4zM3AuxOsQNxTzZXMt4O2FW9HNVly7eDbXxMGxn3tKcd+fDae6wem2zoHjmvNTqMv9qkI/vKRX6wr79ddP+ngs0tG4p71U/7szh+qi2fxEcNJt0VOfZbOQpsUx90FZPWlVjZUH5TrRT/VCf6Vnkhv6qX4lRb+iCea8w/7O3VTblPfjQOU+5A+1Qzsep/6Pl3rfoB+sTq4wXyuxr/qa7km3NJdqY49+pLn48v95LHHr7ElIODr1WetE850pZz2dE4nzMGqhWfymXLjuf+UCgfxTXJTCB76vsHvnK/9zmlfmxojD2mHBt0cq7I5zRXE8nI1958Kg9DDyYPBAvCF8geLB4tBthaPBPaTKSnBcaC1ou+2jKuvY13xcoeuWtDyD5vy00EuL7kYCLfWzLZh93U4d4fxsisHs6g+k++nbSb4wb40jxIe8RPHrTzN5oen/LjGrCZcwm93Gzp38pthexnjGp3UsZB/lkcP6+/wE/mPoGdaez3QFbjh+9ct14nzRX3m2OvGPbGnz5kfAw8Fu5ly3N0Gy7jOXO953+LozUH9wuKZzW3YJpfzq3mn9ourR/kWDqaR+mDWKip9HRPrq7vSMbz3Kuvj5H/Dh19HjexTc8x+RRTfOjIdvav7B7tX0Fc1PTUfwpXkLvndQqqnyDnrf49yN3HRXNm7/1Deu7bY6Cf2vq8c7L26Lh9aqzxlP9Vbh6L5rrPHbdbHpYeTB4IJvTeRGaBXDrpc+Hws8Fca2Gx2dLuCxsd0P3eg2FCi3za5AV9mZe34TM3slUtkF350mbEBr96QOSG5Sh/akTdiGHavDzGU+u1Qpth1uFU+15X2djLd6/tsXiWx+8ScuxXECsxC/Kd5E4FO6tarZDOtet3yfxDdzU3hMbec1Xbnt+92NR/y/l3Sf2AeJmL09oTl/pYccSu125vrC/FfYmt+M6tC9925XPZfW5xjXFgzGXv3Jp6zNg49f2D+ZYHD9Wf+KZ+h/a9g4m+xfG4pKv1CkfmP3LXqH3ZpgeTUkoppZRSys3pwaSUUkoppZRyc3owKaWUUkoppdycHkxKKaWUUkopN6cHk1JKKaWUUsrN6cGklFJKKaWUcnN6MCmllFJKKaXcnB5MSimllFJKKTenB5NSSimllFLKzenBpJRSSimllHJzejAppZRSSiml3JweTEoppZRSSik3pweTUp4AL3/xa/dMfaWUUkopPwz0YHIF3vb25+6++sq37j74oY+O/cBL52vf/f49n/zU50YZwAa2sMk9sn7/GDz3jnfdvfKNb989/8IHxv4EuW+++p1R/prxU8OsHXa/9JWvH471KaL5s5oXmhMvfeYLjz4XgLozvsyLqf8WXBLTNI8msI2PrXV9BPQV67RWbrHGTyX3JThaR8+fe68BsNdsjSMyr772vTeNA77B5Sa2Yjzi+9ZMdb8EasEzyGu5xVR7wA611d6FTR/jlKX/nDzQnfTwg7+jedyKVfyO6rNVI9X51Hy35g9+V2P2lCCHc+Pcyv+aUMsj+1E5Rg8mVyA3DW2a2mxg2lAmuSOwCNLWtWGRHd0MVotybzPVQy/zW8lPLxn4+NjHX3pD70hNz93kVuB38jMx5Tbpe4z0a3P1lynqQf1oS5vUaeXvlLGFU+Ufg0timubRBLbx4TVEN8dKTGOhNSB/9GPT5ejLh+c0J45AfLJxTXwOqi3riMzkP+V8DgMH7tU8hqk+2DySa/p2PI6pfwJbU92dac3tobmWOeHvSJ5HUOynxLeq8zQm2a96uNzevEZPNtBB19sc2ld7ALr+F1aq7+TTuVatQfGr3l4TZ5WfQx65b+yhnCf7W31iq76PieYguU/vC07Obe5PmX9bc3oLanXNufPDTg8mF7Ca5D5BT3345UJiwvs9trc2k1PQxjnlsIU2q9VGoXhX/XoJydpos8zNRWzlnnVbcep4HOGIb9V6yi3zSnsr+7RTz7QpX/RlvVTjUzZRZJ/CA8o5GtM0Z6a2iWk+rnSRZV4xv7wdXY+Tfu5dDnt782cLzYOtl/tzwK7i8mv1ey3oxz+fLjPly3Wuwck+cE/7NIbgbdjINo8Rv9N+lMhOtvs4YjN9ncsqR/D4sz3jg1VM2JjknZw/Pk7oexxcEzMv/1s2JKdxXY0zZK7uXzVyXxOyDf4XVu5jqhG+cp5eSubKpw5LykexeR/3q/E9gmq4ssEYkevUB9M4K4fHhrHXvro1RsjR52MNOQZ5v5Il773aOLRP86qcRw8mV4CJ7JuMwyLKh7CDzrQAtlgtjlPZinsFsnpAT7n54mahpm3fXFJfm4v+BnXKXeDjx37iveNmtMXeeJyD5zz1w6rWioeHqMaVT2TJbcodkFG9ckNUjXnQZVz0UdtT5hD2sXfNml3K0ZiQy1xp++znv/wD9VWtNFbeB4wdutku8qVMdvCvuk96zil11vijR1yTzCX4vOba4yQn1RZWcSOTsWnOH8kTv5PttKv6Mq7ES5/Hm2Mjnb04lGe200Zftp8Ddnydbs0VyWX+MLWp3e0n+Me2703IokOb/FHbjGfy52RuPqdSFlteU7/3eNSfTLZp8/kjO+4Hmcz/UvCThxDywYdqRgy6nmIXxE4Op8SHbeXkfoCYsMfnll84x/c1IXbF53GnXMZJvj5PgTW19ePQW7Wgjb5VHbLG5TJ6MLkALYZcAD55WUQ8/JjU6vcJzIQGv8/+1WK5NcpNmz5ocX/kxU+Mcfvmkvp7myB18VqlPJ8+Do5kppgvZctv4rlpsyMn4uJaG6fLkTd5TjFPfZozjMHUly9pGb/PP5CP5194//2n5HJ8ZYdPdCS3ein0l6+0BarPJJN586nYsnbSd7Iu6GQMspn2fA4KZJlXU11dn35supzGK/PfQnlNtb0WXpOpPoqBT29TfTTG6NKm2m/h+eALn25f0KZ2jdNKbhovwM/eXoBu2p3G+lymOSYyPh8Dz19km+pPG9e8KPv4qX+ae563xs/7p/kgNG45trSxJ2W7Iz+eO21cw1QnsRWTo/hk8yHWEDErFz613+CbunKtHNlXX/+cY0D/SF4C22lP8Sh3r6P6dJ/kvHosMlbyyb1TkPO0jrJ2W3PE+/DBQVx9XlNqMc1dcYtavdXoweQKTAuIzc4nay4YsTfJJ661kbJoJ/tHIB9iYLGyaGVTi5uHILnlhuc6U51kG71c4GkvNyP59k1nGpuM+VImvxl/xiEZ4s+/WXNbalNdpOs2cj6oTlkf9bl9+ty2dDx2rpGhXXXT2LmcbLk9xe+6fKKnGCafk33a3vu+D99f0y6b8qE6eM3A54x0s414vS6guJQLoCu7iY+DdGl3ffpplxwQS/reAnnsem0eAq/JVJ+so+pOm64zfyB31iDtW2uR/lWetIHqvKpfxugojpV/QDf9H9E7CjlqHmcfvj0vj0X5u7y3qS5ee/qw9853v+e+L/cN4WMHU2234hay4/roTfaA+DRWusY+tWbde0wrkNE36dxnjpmbdKZ4LoH43Qd5k4+3TWS8XNN2VF/10/hPMltI3zky1g8BfomJT+5Vi4zZkazQnPf5N+kJyWqeqB743lrzyOFr6iun04PJFdAkzkUBexPaYXLnJplt2qh983oIyGVvM5pyQ0/x0o4Nr4vrpL7L08e15+kPrpTn3n1LJsdmivkhOLJR0c+PcAEbrr5l8npxTZ8Oeq4P5EO/6uI1Ue7SU1/Kpl36aVeN6MeHjwUoNrVzz+buYwTpd8J9Ku4cS4eYJL+KT3Lpd2rjPv0pbvLib8+wP+lK1tclctiTvuTop81jnXxvcar8uRC3/HBN3NSZMSa/rIXXi3bqAZ6/2+Vlc7UWZUu+sp82xbNVC+RYO8jybaReQFZkrOSR/mmbdGGKdYvJvqDd6+v3XKfe1OYw56jXaq1MsCdN4yNbUw0Uo8bw1LmKLDpuT205Plvgn/nlh5op98zFa34p05hgf2uchHLek6WfuI/U+ZI6Hp0z18DXv2LFP21THJL3vDSutGufoX9Vp+xzm97H9bljWo7Rg8kFaENIfHKzOFYPX4eJzSJYyWmRyf6P/OiP33+m76N4jEAuviGz+LbiAY9pZRsZ7PDJvdvN2vCpjYD7jCnvU57PjEVIJn1eypbPFYrFUS19c1N+tKk/dakz9ZYe/aov99RL45E2FHva5B455LnHttsUR+1ljAnt6Mmn8vaxThSTfu49fbpc2pnauM/4FMeW/Qn0sKW/mXZd8qNNtQUfI7VtsSfvcZ+D6qDxFNj0OZD9gC5xKX/izNqp1tRgtRaVI4cJxePQJn/ZJyTjtVr5nMYFpnmxAjnkp74VKx2NoWqnNaR79DKuqc3ngtcBn3v1w5fHJh1nTx8Z/HM4JBZiSBuO7zt8okfMyh9/k55wffwx1jmmgny24r8U8vc1sxe7UM33xoi8yPeUHHIeHSHn4mNA7oy9x0q+xDGN5xQjNhh/2nlO8MlfAvo6cNDNPtpyXFRD3QPXDzmXftjoweQKMCmZuNPCZRGxOJjImuA+ybWgvG+Fb7rXZNqsuCYubaoTys1lpsXNglWb20191UJxZD92fDNI+cl35jbFfAmej7dPG9VUZ293ebW5bWyufKmda68BvjRvUp++aZ4JxUlck19sYhu7bm+Vn+KSnvvBhuJUf9pxiEn6WWeHPsW31+Z2yJWcFV/GvIVsy4a+CZtkJ7byAez7GD8ExKDxmPqPoHHPcVT9sT2tRfSQoR25rAf3W3Vyv/I19bkOcpO9yf+K9HWElQ7x+ZrLWk3xehs2qVGuW641ryc0r6b57jVb1TH7iRk7+Mx4iYX+aY5ln+wpR+55caWfXIFr/EgnbagmWyh/xXEuGYvYq5ugn7qRY9ZNYNvnhLcf3asmpnEil72YrwU1Iob8i41VTSFj5B5dP4gw/thdjTG6Ux86uRdmLLKt/nIZPZhcCJOYzYNJyqLWJpmLPRc1eiwCLaZpg3HoW23il4LN9E9MmYMgvy29XNweu/enPp++uai2ypmFL9+T/ORbdZbMFPMlYJcY0t60UWUswDU1dVnllZuh9LMdG7TpRxZWNcKH+5Ge25pAZ8oRPfSVj3LRvVDc2NE1cC0ZYlYssut5JIqJB0/WL+XSjtpAc9rzIy5k9Mv+mY8gzq255LWf+s+FuLN+TxGNtedPTbQX7NUPyFVjq3mhMVuNuTONP/H4eOe94/73mHztsaVDXOTJZ8bBdcY1tTn0rda7++Ief9xv5YM97/d7jS1/U80c0Eum19jngtqE/AvsIKtv0Jhbpx5MEnS26nUJqqdQ3YmJGL1PaA76ulGMMOlMnJITPvb2EsWsufFY5P5B/Xz9T0iWGlC7zI/7SU9MtVDtseft3KtN4+T95Xx6MLkQJjobpBYQk9MnN4tp7+E7yeREp29rk70E4s4HFm2rh7WY4kZvWtxTf+rzubUBarPRfcpPvrnW2HA/xXwJ2M3NbQ+P1+9FziFH+eTcoA46IOcckT36pvp52wT60wsNeuirlson7aGHPv3y6fGD+1COqxpIXr7xN/mVXLZPbZC1Vaw+Pq67N5cmfUBfNpA5dV2ju1Wba6F6aN7ukXlK39s99qyf5FUbyavm+FAfbRonIX1v9/Ga5HxuuoyQf+ko9pRT/8rOCtmf+kDxZX3RSb2pTXFJH39ZD3Sm9b0HdrCt391x31zLl9eMe2RXZPxCc0V/EbHC89hbW8Sy8vdQMAbUA78+j7ifYtmKUTVZ7T9HUDzTnBbn7FHXINcU/tlPpziIUXstetSMtsxvK9+pjzbmFHN8a43cYi69lenB5AKYwLwM6m+qc1EgM20euVlPMthATvf0PcTmQAzEgm296NFOLn4/McW9tfDBc0dfD10HG5PuVBN/8eMzbQnJZMwew8rvFuhMdZo2qukXSVV/5DOfvCdW5ttUW3yRwyoW+qaNVX2eO9ceu2z7uCJDm4+H2tyPcnBd7HmcU3yy5XHQx1qbbChGz0PtHuMWilXyupdN7n0N8pnz1/NMfVDcygOU69E4kXM/TxXiI06vn9eD+vlaTHkgV58DgrZsl77XcTX+imWaM8LHd1o7zhT7EZAnDtUg8Tg93yn/bCPvzM/HANJuQh8yk5zq47XB55d+8VfuX+SoCferuUosvp62IFbssIcSB/ZO+cbE67hH2s9YjqI5gU18+48mEa/qyTX9xJg2XC4hNl8/DnqZ1xGmeU68q/j2UA2IZ+rfQrr4n/qPoHmDrel+S5Y6UA/5ZxxWulvjVE6nB5MLYMJqE1stoGnz2JvEWhDaLM5Z1EfxxUhM+KMN9jajjFOsFq/qpNyzNnzic6qjdL0WKe+5SCZxn7KJ3jROl5BjjC/9Ap77yDqj43rT/TQfsEPtXVZonFa1wZ6PX9rgnhjzbyszDsWAHPKSS78aN/Urp3woKu7JjmLyWtIme97m91vgD5uKQXGSF/eqk/witzVnXF/XqzHY6xf0IbMn9xRQrKof4+BxZ/345F71B2o+jV/aAvSYL/InuZynoLGEnHeAnsbZ21egj3za2UPj7jEL1Y9YdK2caVP8Du1pJ8EXsqv85AuZqXaTb5/jrsN1jpOYxjv7sScf2MKP6nH0YMJ+xN6b9tFZ1Qv76Exz4wjYTl1i91ogQ16rcZDMKsb/X3vn12pbdtbpL9mX4hcIQtM3QZGWQLwJaLBBRAgGbAwdCjooIUEUVAiiSJAg4oUf5jRPyS/9O2+NMedce61d81TVc/Gw5hzj/T/GnOsde+86he2j90/A787HjGkF/ncxnDHX5BGIidiIcTV/hZnfUb49R7ysH/XPfPbTKpdnaiRfxIPJE3z2f3/2+WY9eoBWLw82cG94iA1eVPOFhvxq/Fny8HXcxNlfBjuIaZVbP9ydUzh6CU8S3043sa7qvgPZ2Ol1W+VyRr5YHmX6771ALL3OHS/3jHOf+U8JYiU/Plfzd5A9Mtdgx/wiQjf7I3XPuvNT4aM90/qrZ37S8j0+99mr3wMrps+rdGz9fGFvxr16P8wvd/TmGGCz9QL2sBu5Wffotc2MUfvdWjaruGGu21WIb8advdBxxm9qMuuyGgvoJM6dzBGJB/2uJ/RazBp2bh3DEfzGBZ3YYs/kOcMX8WPv7GDCZ74/ZsyJ7awWyMyc3kLH1vuHHIhx52PG2DnBlbXkNzXRm3uU+7n3GmIitrfu7TP7R6RO2KAOyfmMrsn0z/1KJyCbf/F0tWdC6hK9+W6T5/Bg8gL6AdrN9ebPS2hu7qMHASLfD9oz8ACf+fyUufrSJM+uf+fcL6ozO6+CePAF2QuZmzlxz5dyv/Q+1XVLLb+sOr4X/cyyFqv/CD7rlL3TfJWfqVeSOvIT67mHr0Itu9G4CnqsRRqGNGZH787s3y97/VbP/NxvE2oy69Jjc3/etSfx++z3FTmlFnzOvDvX9nXmm/lpawUyz9YPG/lN8qqJzf5877VavbeO/BH3lRrteKZ2eX8cPQdnoNt7YN4fycp9eDARkZfAi50vume+SES+iaQxfc+mVOQR2IscYjjMrOZF3gsPJiLyEjyYiIiIyDN4MBERERERkdvxYCIiIiIiIrfjwURERERERG7Hg4mIiIiIiNyOBxMREREREbkdDyYiIiIiInI7HkxEREREROR2PJiIiIiIiMjteDAREREREZHb8WAiIiIiIiK348FERERERERux4PJV4Tf+M1vffj7X/zL53C9knkFP/rxX3342V//w3KuQeaP/vjPTseI9W/+7h8/fOe73/9o/D141Bdy//zLf1vKU4ezWpMr+t/6rd/+aDxrhY0efxVX8ry6jhNy+uWv/uO0hn/507+9XOf3grpT/7nngNh+8U//+oW1eSX4eGb/iIiIyMd4MHkSGpBf/ft/PkQaVhrHVWMbaHhoEpFPs9vNThqz2HsF2LrS0HZsPTYbNWzRIH77d37/12PvBXWhYT6qabPLNbVeNbwNurtanTX46MV+/K32StNrT+x9P7m6jivQO7INxJ46c72Kd0Xvl0f0UquGsbMaHO0F8kw8eZZWvkPHDrsaZz1XMYuIiMgeDybvBE3LleaOhmfXwGDjqLldHQ6uQkM1G68zZj6rg0g3a1xfPSQ8QvJexXhEYtnpJ7/dfK8Fdjhw5f5KPeMfH6z5XDuuV3smTXPvE2SQRSf76ApZm7fWsOPFVuxNsD/3xoS4z/ZH8uzciWEVWw6lq7kw48/9XM+ma839rnaP7B8RERH5Ih5M3gmamFWT2aThXDV3aYaObKQB6mbrEdCff+6CrY6HOWI4ah4BvdmITbq5fIZV3Ge0zkqf2FJr8p+xotON9qxTN7krVj6nTcBO22Vut8bM8Sddq/0x45us4nmUIxv4P6oHUOPVPlkx1wOf+O7aBerRMc3f1iVu1hvbfCJz9VCzyvvR/SMiIiJfxIPJO0ETk0ZlNR9oYlY/SeWe8TQ42MFeNz+7xqn1M7eLBTs0TGmysJGGljHm0P3Od//wI71J600S+2zW3gq5PdpUt85KP43ln/7gL5a1QieNJXroc41eatT1n6x87siaYJO1u1I3fGetd/T6zHiSx4wPnaO8VmADW2dx73w2u73D/W69iDljiaVzj19k8lsWPrOmkQuJIXVYreVRPNHBz8q+iIiI/BceTN4JmphVgzKhUVn9RJz7btrSHLXNne4cX+k23XzymSZu1ZTGVprdNIytN4nObC6f5a12qc+useQ3EKu8Wye5tn/u+xCwgvX83d/73rJ+YdrpPbCSiT4xYTfrO9dj3icfGvL2d8bMdcYPPd8xTdCN3Bntp+sO7QPfK589Hh3WmrqkdtR65Tsgh61n90+Pi4iIyP/Hg8kTdAP2KOhiI01WmibGaF5okiKzk6PZmQeTlRzQOCGLTsZWYKv97kiM2OX+SC8xRfZVXLEbmY7tqLFEfuY2dbA115HP2Ywe0bG3vZlLYpn+Zu74Tvy5j+zqftYAO/jpmsAur+k/cE9zzlx+e9BxTdmVz2blp2NnPPa57hwn5BGQS278Gdcj/zjDs/snYyIiIvIxHkzeCRqeXUM2QbYPDTQ0s0lNg9Y2kZ8Hk9VYj2OTuTS6jxK7s/lifNcUJvbO5xUc2U2+xMw88c66zdxmbcmPT+6x0U00n8jnntxpyFd2m8R6VhPGO57J1L+ypr0+5DUPJisdmHsJVvHHJk1+5iJ3lMuj7GIlzvjrmLlu/zmUAHPUgLVd2Zzg+xX7R0RERL6IB5N3YjZDR6TRSTNFwzR103DN5qf1emw2TaFlJ8xFrhvOFWnmIte6O85sPkpqErvdYB7Vnhod/cQ7Y70OzKexnH4jy8EEmOeeeeB61mva4HPWa9KN7dSn/ok1a4Ff5jLf96saPML03/nNudzP+N4Cuh0HPmI3Y12L+I5e31MPPmfsrCH1mdfoIfPs/sm8iIiIfIwHk3eim6PVfJOmB/KvA6WRWsnEJg3S7mBCI5SxK3Sjxif/7QG2VrLQzRz30esGjDHi5ZrPR2M6IzVJ03q18bvaWDKPHPI9z3U3yzSvzH32k5+/+WAyYXzG0+z08YWf/m9Hen+E2P/eH/zJ4UE2YLf12//cc6vYMjZjyb7JfeLa5T1ZyXetYbcv8Iv/yK/ynmDv2f2TeREREfkYDybvRJryRxosmjuaWz5pZnoeO9hrm2kIu9mL3Gwkj0A28mkUY4e4pjx089fj3YA9WoNHOYuxQSYN6tXGsjmaTwP6wz//7LTJT6xnsZ/FM/WzF+Y6cs1n+57zuV/5Q2bV2Mc/Oc99cJZbWO0hrmfNAjG2/pTv+JGlHtjvPBvGVzbPePX+ERERkf/Cg8k7sWv0dqRJmw1W4J7xnovObLzSrHXTRTOVn+ZnbKWPTu7jc9XYdVMJ8YVs5GcN2nZo+UdJfPhfzTcdy1say5lLE3vYeMtvTHKdBvuIzoHGG31i45qxxDRr3f7jD5nMQ2zmN0D4S7yTjv+RuYZ5fHScjCXHlm2QX9WkZRIDOfc6N9hJDRLLEcnnFfsntW67IiIi33Q8mLwTszG8Qhqu2TBCGq3Z/HRD1Xqz0Zp6yDI+m6JV3CvZNLqMR575bpDRa7/cw7QxY7hKatI2dxBj4uymsJk1CvHTdclYdJnD7qMHE37jwPz0i9wuHuY67ti8CvKzYe/1xO9c20liWMWY3I7iir/8y13ZN+js8l6xku9cdjECufXeSU4dd2y1jWf3T+7xg615yBEREfmm4sHkRaTZ6EalG5xPCRqkXRNFo7ZqRtOgZY7cuGe8c++csdV+ZiP4iqYMf13zHX1gWvnFTmJdrWVyRZY8Yo8xbHENVw8mucd2atp0PHOu64jPVZO8A93o4yPjnV/TMhA95POvb+3i3JHcey9MPztmrbpOvW6R67H2B13HsKrnSuaZ/ZN5dFa2REREvql4MJGPoAmbzd8RabLSlPVcGtBVcwaP+voUIYc0rn0wyXw3qZ1/mvtdQ9qN7mr+TuY/jMAaZo3PQHZ1IHgrqVP+0YhdzXLg6P2WOLDRMWZd5v6F1n+G9sn1SkZEROSbhgcTERERERG5HQ8mIiIiIiJyOx5MRERERETkdjyYiIiIiIjI7XgwERERERGR2/FgIiIiIiIit+PBREREREREbseDiYiIiIiI3I4HExERERERuR0PJiIiIiIicjseTERERERE5HY8mIiIiIiIyO14MBERERERkdvxYCIiIiIiIrfjwURERERERG7Hg4mIiIiIiNyOBxMREREREbkdDyYiIiIiInI7HkxEREREROR2PJiIiIiIiMjteDAREREREZHb8WAiIiIiIiK348FERERERERux4OJiIiIiIjcjgcTERERERG5HQ8mIiIiIiJyOx5MRERERETkdjyYiIiIiIjI7XgwERERERGR2/FgIiIiIiIit+PBREREREREbseDiYiIiIiI3I4HExERERERuR0PJi/iN37zWx/+5u/+8cN3vvv9L8wxxhwycy7z//zLf1vq/ujHf/Xh73/xL1vdHej97K//YTnXIPNHf/xnp2NH+X0Z4J86vKUWO56tOzVC/1u/9dsfjSdWbPT4q7iyFlfXf0JOv/zVf5yuM7ZX+SX3uX/ugBhX63MnV2Pa1Zd1+cU//eup/m5vArZhjn/KkM8rn/0vG9aB+D+lvfh15T3fQbvvBdaV5+3O915i+NW//+cn/Xzv3mH9zjtaw6N34O69uQLZXkvsUr+z7z7Ax67Gj8QgazyYvJBVM3DlhbXb5M+8YI8enIaHkEa0H6TVA4otXgbf/p3f//XYs2Bz1qvp2FKLfpGktm99CTxbd3R3NUb3qMFHL/bjjy+UIzp3Yu/7yS63K6B3ZBuQWdX9Su3Q3dUGm+S60kfvaL9MHpX/Mrga066+1OzKwWSnjx76u30J1H7uvSugd3UvT1axNrF7JvfW2Od+zD484+gZb6g7P0w4e67CUb67tQ3EQ1yreHdgE9231i/6vb+wlXyP9gW57OaP4trVPrbQyRh2Vvo//PPPTmuVGI7WBBjfPdvo9g+TkEF25a+Jb8A+/tHlkznGWr5zvsqqNtC+V3JzPsy1Ilbyzzw1WL3Dkg/XqzUMO31oG0ek/m0fu4yt9lTAdnzs8r8ag+zxYPJi5qbkfreBeQBWL8U8yLv5fiFje86fsXpRzAeyHzyudy/cZ8gLbPcyxW/nOkl9Hn0JRG9Xl918x0ItusG7sg6pIT7IecbO9VwbWL1EkUEWndTxClnTXY5nJF7srOqeuHZrCol3ykS3/YTUIPFfAdn32LfPcDWmXX1Zt92XMuz2Quq2m++YkFntQ8bPYr+y/pNdrpOz3He0/avxIb+qQUMc/Q6AXX3PmL6wSa1hJb8iaxzdjgvIKTINY6vxM5JrvxcZSy5X6h6Z1XzH23a53+UIO18NdtsenOnhK/svsnMNJvEBHIIYa/vEkRybmV/8UZPVvmMM+badsRkTdO74Rw756Dax0zpALLNW2Or9sKLryPWV76GOr/Wnbfxnzx1B3DNn7DLWsZNvHyhjf+7NVczNrJMc48HkSfLCWG3GFf1wrx4wNnBk2PhzQ68enpWdfnCAOeyuHuYGvVXczaseMmIhl44zpK5drwl5z+b+Cq+o+6wv10dxrHxOm4CdtsvcLkfmeGmu6jPjm6zieYRdvlm3WT/G84LfrTtzjK9+snxUhx3Yx95bc3wPzmLKPqQGPGvIJ/f5HIauVe/j2Mxe6DXIXHQ6prbB9crnBDl00UE392E3DsSWdT3LdUfnjL2VzBEzLuJZyU2IteuJnVn/M1Y65AAt13NHzwHxsJ5znbMPegyOfK3I80v+rZc1xs+MYbf+yWU13/HOGsX+Zz/5+RfWZBIbfGKHz1nv2Dx6JyZWrnf5NDPmjPWzFjuxGxnibtvIExsxruxmTXY6GYOpT14d0wT5uc9XXJXb1flqfac+OnPNm2ljVXPAbu9ZIKbkFL1pH5m203nI2/Bg8iS7Tb5ivhBWD2hk/vQHf/GRbFg9PDBfLsSTB4Yx5rD3ne/+4Ud6k9abJNfVy+Kt4Gv1MuOe8fiK79QEvfmC6DWIfua6lsw9U3f08sJHL7U92gMrnzuyltgk9iv1xndy3dHrOuNJHjM+dFZ57cZXewSb2MZf/hQwObY/7GUNVnNzn+Bjlx/EB3uez8jN9Y0dPtGJ3NG+3NmC1GAlM/NObZDDP3kiAzRd6HId26t1a/vzHmIznxkP6HRMbWNlr0n8yHGPHPK5D7txSGxzfILcKv7JlGv7M45dXMgf5Q3knvdAxrBzpjeZOtijpnz2/jii8239jMFu/We9jkAOf6tn44jUecYNxLVah473qEaRDytbkFpC9jokpxXxiZ88d8TFNUwfzYx5R+KNzau1jd4qbmzgH3vT1oyL/GdNGvK9EhN2sl4r8DvjbL/o4ovr5Nb1xX+/e2HGdWYDuF/lw33vqZk3caaezO1y7RjkbXgweZJs/isbcb4Q2OBs9H4hRIafbK42+EontHw/OCs7iTsPeB7e1pvsHvRnIB8e/hkf9/3Siu9Zv5XuHJ+6z9adOWS6Htz3C3MF+fzu733vc52MzVpOO6svjJbpdUt+uUcuOvM++fzlT//2I39nxN8qX2r+vT/4k1/XJH5268s48xnDJuPkS95dG+Y6P+Y6nuh0jomxa5h4Wi622l7WtnX5RC8xrHyu7DNGXbhmPDbjo+vAfKAWjPMnIG2r9y7xzrr0PWCHfR2SYziywXVqc0RsJifuyWEl20Ru7o8Vqctqrplybb/jW90H5FfxTuYeDqwP67SaOyLxxG72WMfX+QDXnS966K/i3dH6O1KTK7KTXZ2Ty2q+82J8xpwaxUb0dr4AeerZ6zL1A/rYwV5ksq55z82YJsjwzscn93O/JNapw3jHckbq0znv9mDnxT255Z3UciG2j+LKPl3VcYJM++O+85/M2Min34FNr2Vq2zXJ2Oq55R5ffCam1u26MY+v5D1jnswc5BgPJk+SjZ6H4Yj5Qlg9YC2TTd8Px9FD2eTBWc0108eRXnLteJ4lNrsuianjWMlRC14wXfuVHBBzXkbP1p248sJJjHxe2QMhceKj7c3aJpbpr/W5x3fnPNdx3s8aYAc/XRPY5bUb77iYX30BAGO9dl3z2Ei8mZuynQ8w3zkwv/KPjx7nntrOfKbfFe0zcfc6TIgp8jO+6GOTuZVfZOe6tb95D7EXffx3TY5srOw1qRFy3COHfO7Dbhx2uU6QSx5HIJPn5SozLuI5yhvInbXoWl6ZC6ld5x6/0b1S315fWK3xSi5creuVmuzYrT9+sXuWF+Ptu3Nkjmtqxdy0lRru1j0x7Hz+9//xPz//jM4u3jOyJ/pQs3o/cc94++v5FcSMbMcTf9N+8kotoztpW8SQ8VU8iTl/cRDZXhdI3Xocex1Pg11yaBurMZhrslqj5LGrO3Flr7QeoJvc+cw+kdfjweRJsvnzIJ7RD2Ae5jMZHpQ8RDwseajzkL2FPGDYwV4ewqMHbvWgvwJ89osC+8TYfuJ7Vb/kshvrcWzmetbkat255xP53FMzfhq9stskp7NaMt7xTKY++a78Nb2u5NUvd+ysdGDWErC1Gk9cO70QucSE/64vusm/1y6y2M994B65rBm222a4am/GOGEcvfjED/6O8k5M+U1V+4w+Y8it7DDXOXGfOuUeu5POYdroWk+b0/6kY+Y+Nct9SM1XtdzlOkFupT+ZcjO/Zhfvs1CXVVMI+GJNsm/y543EQtz86WF0U9+5npPOFz10pm/qsKrfrNeOozqekTqvYsfuah06Xsbbd+c4dVe2QuxQ18jgA1/Mn/nkHc99fCC7yin0++hoT0D7fgTs4Qd/2E/eO38zL3z2+2DH3IvxA4mh8wVs9xifxJR4sUHesblixhYbM9657vM+8fMb6FVduF/lsOLKWiHTdZbreDB5kmx+NuFqvpkvhNUDNmWAByBjzJ+9RPpBz0O5Iw9r5M5eEnBm81HyQkgNO9/IpM6zfq3XY6u4Adln655Yug7I5k9lmOeeeeB61nna4HMVb9PrPvXJK7FmDfHLXOb7flWDR8BW1z2sarMD/eTU8TOHfr4gWi5zszZNfBNj64W5b2JvxpxcEtfcW8hjI3FmftppiCn6vR6T1Hf6PAJ5fHcdgfH2lbwyxvysfe65XvmaJOfYnjXAF88Gc+0rc8SQe65XPnak/tFvWPt+7s4glpWPK7QP/Hbz0+vYa7Fi6k5W9Wqb6K2e7SkXGDuLCdCfa3eVo32B3dV8x8t4+yZH1jU16vmdr5bjMJgaJwbmdz7nmsQHssA9+5t5bMCMcdpAZu6hSfwjvwM7yOEreozt9tGsJfGv3pM7kIsv/DCGD/Z37sMcxxf/7RxxsQb5ztzliT6yHVuPYTc5H4H9H/zw/2zrkjiP3iXNVb/hql35LzyYvAPZ5KsXY4PcfOjmSwP6QVrNNzwwPPz55CezRw8EtnnJJNbocZ+XFWP45JrPs7wehVywC7ys8IvPnUxyT51b9krtn6071/3SyYuVFy7XyKSGwPWsc/LJ/YTxGU+z08cXfvq/HZm1hNjnzwqoV+ezArutz/3K7lFe6HROyOA7f9rQ9rpe6LX/6B3ta0Ane7jH5x7hkxxzH5ILdnLd8QMxJ5bYXdUlJKb806Gd15Rb2WEcvZ0PcljFOP0Qa56BOd/30x56xM8n91f2NbayDpnvdWF+l0+DXMc5SSzZs48ybc+4VnXcMWOZa3IEunnvcN9rsKrvhLnO6wpX8iL/R/JoZtx8dm1XeXW9GW/fq33IPJ9HNYqd/gc2ep37un0y1vXi/coa8c5HB5lHDyYTdK6sQxObxIovPuOX65W/zot7fKYWLXdEahw76MZny2U89aBGvO+JK/5mbSczNuy0fsA38mc1RK/rgnx8HX2vxH5oP+Qwc2es6yzX8WDyJGw+HhwaajYh94z3A9myvZlXD9h8aUyO5rEd+/GVF8h8aELinPPtB1tHMb0C/PFS4EW/ejkkj44DmdkIRq7rPHl13fOiu/I/60qdE2fuJ2fxTP3UYq4/13y27zmf+5U/ZOYXQ8a77uEoL3TaZ/YeX1Z8zjVHFlvzOYreyn+D/movodc5ESv1mfZSU+bjs+OH9pHcV3Vs+fjG38pv5OY4Otlnc/8GYp3+sTPjbub89N02yZP4+VzZ7fVP/eYaRCbjq1xXIDf9HYHN3Vpgp/fApPPMGPbyHE/It/WzVq2/Y8a50iVe6nW09mGXN+Or+l2t61E9z8iap05n99DxMt6+V+sTVrbCtAP4wNfUW8kG/OZZXO2H0Hv/bE/s1ueIrB22qUfnvPM380L/6FnYgV7spHbk0DL4pgaM4xdSu5W/sxpBbHZ9O3/i6jpM4gMZdJI7drievpHrdYS5Vhy24r9ldvtHjvFg8gR5QNiMuwdz0i8B9OcDiq2jzbza7Hko+0HpByex9XyILn4h8SMb+emzbYeWfwuJg5fNKv/k0HOrvIE8sJNcgFrntxmvqnuIPWy85Tcmuc6X2RGJofcesZ29ONt//HV9IDbJIfEk3gm2W59r7OeAPvV2PrGDH3R7PQBZ5mZuPdd+uO6cYzs1iwxjHUfG2k/q1brY6zhX8cVWx8EcX1wrG4mx88j4qlax29cNdjpmwM5KNrQt4urGgE/yowHDJvfEz2fWtP1lDHnkzvwmtpnrio7zjKzDXJ/E12uwImvbcZ3VsZl1PGLmtdNNTEcxJL+VzC7+6X8H+r3Wj5C4ep9jL2uzmu+4ej1Dr2uzshUYmzngg1jiI/Mr2ZA5fvOCPjK8N4kHW8B1nhV0el25Zm7mtGK3NvhkDlux1znv9tHMCxtHzwO5zBiwSf2Zy1jqlxiwj59pG13iYgz9me8KbPzvH/3k19dtj2vGEkvuuxYN86u6cI/eql7T564m+f6PzG7/yDEeTN5IHrrenFz3gxrmg4IcsJF5uOdDuNvMK595sOdDuHpwVrKJjfHIM98v/fmAcQ/TxozhUfBPHG07JPdZG3yiM/V6HFrvFXXPWHSZ6xcT98QAXM8aRZ8GjvnpF7ldPDO32LwK8vNF2/sAv3NPTBjvGFL75DVj2u2R5LLyk3Xa1QGfHcO0wT0+50815/5KDGmmIzf9do0A+9jqZwXm/mo7ialrz1js9VjHyXXrpc6tA8llMuVCcoovPhNvbPWakVuaioxhO7ElrtY5Y+a6A7ldHkckx9RiruuEHJEnBz6TGzFe9R+fZ3VIvTp/dLtxigyx8ydEyWXuO8Dfahx28V+pf2I4q92O6BNfagN55vIDjfzGfOaHXvvOGq3yPKr9tNPj+OSTeuS6ZWKXOaBmkcfe1YMJObOObRt263OFVc4z3qZrkHyPZIit53Z7jLGs37TRMvMdEogFndR0zk8SF589ji52Vv6zDjP+xD7XPTG1nStrhczKv5zjweSFsKHzQE5WG3T1gGIjssB12+FFE/nVAxN2D05eVpnDX2y2v3445wOGbr8Ijl40nyKvqHtezIzlJQdXDya5x3bWoul45lzXH5/9RXAGutHHR8Y7v6ZlAL3EvoobkGmdsMvnbpJj1uZTIGuUvbhan9Xcat9gJ2vV+26uC6S5Qq6/vNGP/Fz3xNHxtv0rPKMbsNFxQT8f5J0GODozl8j3XsBu5I+Y/q/qzbVN7Ykha7Xam/PZx1/2zZSFzHPd65l32Uo+MkdyV+h9N+3ghwMJ6/LWZxC9jhVb7Kcph6+ey56bMaW21CkyWSfm8v2B38icHUxik/iYj6/AWNbnUVLfrl/2UfwHZHb1+TIgntQvY1m/1CW1WtUpUKusyWoepl3Y1SXrnD3UdF1ht1bxt9OTa3gw+Zry6EsuD+XqhZWXXh62+TJ41NfXCXLPS48XXQ4mme+XXdeNF9bRS5X5O788vknky+RT+hLheUqzdvZssf9mY3UX2e+P1JL88gw9S9YynD1D+EYO/2+JXa5x1mi+d+2zzllrxrJXzmKa89hKnHzO57O/L3v/YedoPzI/bX0dYS9wMOgfEuzypibMH31XPgp2VgcT+XTwYCIi32jSoLxXUyQiIiLX8GAiIt9oPJiIiIh8GngwERERERGR2/FgIiIiIiIit+PBREREREREbseDiYiIiIiI3I4HExERERERuR0PJiIiIiIicjseTERERERE5HY8mIiIiIiIyO14MBERERERkdvxYCIiIiIiIrfjwURERERERG7Hg8kL+NGP/+rDz/76H5Zz3/qt3/7wi3/61w/f+e73l/NfBvgmhh/++Wcf/v4X//LhN37zW0u5hnyuyj7LH/3xn33451/+2+e16nF8EwP17fFXQ33wv1ojfL+qDtR05oLdv/m7f3x6f6RWv/r3/3xTvK9a76Nn4RHYE7/81X/c+tyIiIjIl4sHkxcwm7E0iYy/58EEm9ieDf2k5Wj4rjSgVxpV7NI80gw/wrSLr10ze9agoocM16n7ymcz/e+a6diL/cku/508PlYHEw6M0WONOCRNm00Occj3+LR9lWnnCrv12tXyLWDnbA+KiIjI1wcPJi+AZoxmLU1UHwTgvQ4mgO80qonjCrPhI77+rUE3hTSuzzaI3cR34z7rg98Z6yT5JjbsdlPO9SpedNCN/46p6XVczTPGHPTBcNqfkFvH2Vyt8fQJ6KDbtjM2Y4fUD7mzmM+4sl6wy21X4zN2dRQREZGvLh5MnoCmiqaOP8WhQQs0TatmqnlrI7giPmHVAK6a2Uli7/u2xX03tFfpBnkVGzFPv0dN5yqXrAOfGcNO22VuHmBWtvqAgP5cp/Y19flk7rOf/Py02cbH7/7e9z6Xf2QvrGJOjTu3jK3ij37iXcW3A/n23azigK7pvF/lIyIiIt9MPJg8AQ0Wjdpf/vRvP29iabL+9Ad/8XmjxTUyNFx9/57QENLwcVDqZpJG+aj5Izby6BjJp5vJjOW3BRk7gngSw6r57tqklqvGtkH2aiNLvLG5imFlK00z6zjzj05qNfX5ZG6VKxBP5zbl+Uy9JpFpn9hbyULin7FMfeLJvpm5Tma+k50dYuhx5PDN9bSJLDWZPmbtRERE5OuHB5MnSIPVjdZszmiwaLxowFr3PZi+AzEwzifM5pnYE3+PrWwxfuVwgn0a5JWNkLoxjxw63M8me0L8/LYBnYx1PjDtrJrdVaONHezmt2DEuNPhevWbEWz0ngjT3lyL+O56dW24X8WcONr21GvZqY/ezGHHqo7JY8YeiCF6iSuxJh4O9yt/O2ZeIiIi8tXHg8kb6QYLaDpXzSDNGI0XDVjrv4o0hfgkjlVz2DF0k8jcvA/k07Y6N+Zm0z3Z2W2wkUYz9vhM03qFGdeucU2d2t+qSUcveUenbbXO1G955rjmM7ozt2m/fUem8+N+FTM2yaltT72w059+V+zyhbY3SSypfctPm8S7svfovhAREZGvHh5MXgANE43Tao4Gi8arG9RXgl0aOT4TB81dmkDgX31KDMwnVmJDd9XwIdPNKvdnDWizazAnzOMncvjhtxVn/41GGu5dAx4Y3zXd1GPlp+W7vtx3XoytGvXEQi5d23k/5fmcsYTI7Hwiw3js7+oy9QGd6W9Hcm+bK7BJvqu5ZsZzVIOunYiIiHz98GDyAroJo9E6a6qvNndXwHca6cRBc8cYPvjMf2/QBxR0I7dq2rGTOa4fjRnbZzqr5hlfHEwgvpkHrrGH3ehMG3yuat4krlWTjv6sSdeC+Z3+jG3OY6eb6ym/8j3zmzYZ5x6SH36mXljlDJFHt8ffSj8TR+ziERERkW8eHkxewFETRsNF40UDtpp/lm52c50GF99pTplL0zpt7EizCt0sXwGfaeBX84BMmmngMIIv/mP9tx5MJozv4l81xSv5XsOen/qr2Mgja5/1abvPHEwyl4MntmPzyn/8nrHo9Frs4NCdfPg8O4SvaBvJ+Xt/8CeXbD2yf0VEROSrhQeTF3DXwaRtdwObZo/5jBFjN4RnoPNMI4g+zW43wGckH36zc9akYh+d2bhPGGe+m/1ALWaTfiQ/56c+n33QmLz6YIIt5rjms21PvTBjZp56Um9imf4DtrvuZyB/Ze9MueQ0Y0Dm0f0kIiIiXy08mLyAoyaMRopG8OxAgP6VRq6hSUyzhn2u+UyzGfLT88gyv2tAo/tsE9ixreZXpGlG9y2/Mcl1574Due//rx981KQDdna1gW6ciXd1gEpsE+JHP/czFz6nrRCZ1Ahd/iUr7pN32+66ZGzqE888rHZOHBCJj+u2vQJ7+Est+5kghukHVnFDYshv0Dr/Sce7kxEREZGvBh5MXkA3YRMatbODCTLdoF4Fn/E7G0EaujTXjBMDMDfjTYNIc/foYWIH9q/Yat+AHrV69GBCE818cg6zFk03tc1OPr7wE/00+dwfrWN0uwmf8kexhukTVrYzNnODo3XBxqM6xI0Mf4IXmd5j3/6d3/91rn1AQW/ajRz2iD/XsdUkR+ys6iIiIiJfLTyYvIA0Yd1UndEN6LNNFXrop+FriCvNXxpfmv7ETCyrn2Y/SprThrGVbMB/fHcOcPVgknv8MT99INe1bvAz697yaXw7p9Sy7ezAfh98pu7M5QrITjuJc3UwmbY751V+bWPqdS6pUfbQ9NMHkwa5yDOPXMZgV9+WAfQ6x9VaioiIyFcLDyYvYNeEXeVZfRozbKzG00BmDD+vOIi8GuJPDsSWg0nmu4nu5pUcd81s5mcNPhWI+crBhDWbTflK7stm1n4eXs7yegX4+DL9iYiIyPvhwURERERERG7Hg4mIiIiIiNyOBxMREREREbkdDyYiIiIiInI7HkxEREREROR2PJiIiIiIiMjteDAREREREZHb8WAiIiIiIiK348FERERERERux4OJiIiIiIjcjgcTERERERG5HQ8mIiIiIiJyOx5MRERERETkdjyYiIiIiIjI7XgwERERERGR2/FgIiIiIiIit+PBREREREREbseDiYiIiIiI3I4HExERERERuR0PJiIiIiIicjseTERERERE5HY8mIiIiIiIyO14MBERERERkdvxYCIiIiIiIrfjwURERERERG7Hg4mIiIiIiNyOBxMREREREbkdDyYiIiIiInI7HkxEREREROR2PJiIiIiIiMjteDAREREREZHb8WAiIiIiIiK348FERERERERux4OJiIiIiIjcjgcTERERERG5HQ8mIiIiIiJyOx5MRERERETkdjyYiIiIiIjI7XgwERERERGRm/lvH/4fuG9+jjwan/oAAAAASUVORK5CYII=;" parent="1" vertex="1">
                    <mxGeometry x="21" y="-900" width="806" height="608" as="geometry"/>
                </mxCell>
            </root>
        </mxGraphModel>
    </diagram>
</mxfile>